<svg width="214" height="51" viewBox="0 0 214 51" fill="none" xmlns="http://www.w3.org/2000/svg">
<path d="M75.6286 37.9768C73.1622 37.9768 71.0277 37.4432 69.2253 36.376C67.4466 35.285 66.071 33.7791 65.0987 31.8581C64.1263 29.9133 63.6401 27.6722 63.6401 25.1345C63.6401 22.5732 64.1263 20.332 65.0987 18.411C66.071 16.4663 67.4466 14.9485 69.2253 13.8575C71.0277 12.7666 73.1622 12.2211 75.6286 12.2211C78.5457 12.2211 80.9292 12.9326 82.779 14.3556C84.6289 15.7785 85.8028 17.7707 86.3009 20.332H82.1031C81.7711 18.8853 81.0596 17.7351 79.9687 16.8813C78.8777 16.0276 77.4192 15.6007 75.5931 15.6007C73.1029 15.6007 71.1344 16.4544 69.6877 18.162C68.2411 19.8458 67.5177 22.17 67.5177 25.1345C67.5177 28.0753 68.2411 30.3877 69.6877 32.0715C71.1344 33.7553 73.1029 34.5973 75.5931 34.5973C77.4192 34.5973 78.8777 34.1941 79.9687 33.3877C81.0596 32.5814 81.7711 31.4786 82.1031 30.0793H86.3009C85.8028 32.5458 84.6289 34.4787 82.779 35.8779C80.9292 37.2772 78.5457 37.9768 75.6286 37.9768ZM97.8452 37.9768C96.1614 37.9768 94.6436 37.5974 93.2917 36.8384C91.9636 36.0558 90.9083 34.9767 90.1256 33.6012C89.343 32.2019 88.9517 30.5774 88.9517 28.7275C88.9517 26.8777 89.343 25.265 90.1256 23.8894C90.932 22.4902 92.0111 21.4111 93.3629 20.6522C94.7147 19.8696 96.2207 19.4782 97.8808 19.4782C99.5646 19.4782 101.071 19.8696 102.399 20.6522C103.751 21.4111 104.818 22.4902 105.6 23.8894C106.407 25.265 106.81 26.8777 106.81 28.7275C106.81 30.5774 106.407 32.2019 105.6 33.6012C104.818 34.9767 103.751 36.0558 102.399 36.8384C101.047 37.5974 99.5291 37.9768 97.8452 37.9768ZM97.8452 34.7396C98.7464 34.7396 99.5765 34.5143 100.335 34.0637C101.118 33.613 101.747 32.949 102.221 32.0715C102.695 31.1703 102.932 30.0556 102.932 28.7275C102.932 27.3994 102.695 26.2966 102.221 25.4191C101.77 24.5179 101.154 23.842 100.371 23.3914C99.6121 22.9408 98.782 22.7155 97.8808 22.7155C96.9796 22.7155 96.1377 22.9408 95.355 23.3914C94.5961 23.842 93.9795 24.5179 93.5052 25.4191C93.0309 26.2966 92.7937 27.3994 92.7937 28.7275C92.7937 30.0556 93.0309 31.1703 93.5052 32.0715C93.9795 32.949 94.5961 33.613 95.355 34.0637C96.1139 34.5143 96.944 34.7396 97.8452 34.7396ZM112.311 16.5612C111.599 16.5612 111.006 16.3477 110.532 15.9208C110.082 15.4702 109.856 14.9129 109.856 14.2488C109.856 13.5848 110.082 13.0393 110.532 12.6124C111.006 12.1618 111.599 11.9365 112.311 11.9365C113.022 11.9365 113.603 12.1618 114.054 12.6124C114.528 13.0393 114.765 13.5848 114.765 14.2488C114.765 14.9129 114.528 15.4702 114.054 15.9208C113.603 16.3477 113.022 16.5612 112.311 16.5612ZM110.425 37.5499V19.9051H114.196V37.5499H110.425ZM118.463 37.5499V19.9051H121.807L122.091 23.0001C122.637 21.9091 123.431 21.0554 124.475 20.4388C125.542 19.7984 126.763 19.4782 128.139 19.4782C130.273 19.4782 131.945 20.1423 133.155 21.4704C134.388 22.7985 135.005 24.7788 135.005 27.4113V37.5499H131.269V27.8026C131.269 24.3875 129.87 22.6799 127.072 22.6799C125.672 22.6799 124.51 23.178 123.585 24.174C122.684 25.1701 122.234 26.5931 122.234 28.4429V37.5499H118.463ZM137.027 37.5499L143.288 28.7275L137.027 19.9051H141.047L145.778 26.6642L150.474 19.9051H154.53L148.268 28.7275L154.53 37.5499H150.474L145.778 30.7908L141.047 37.5499H137.027ZM157.029 37.5499V12.648H165.745C167.689 12.648 169.302 12.98 170.583 13.6441C171.863 14.2844 172.812 15.1738 173.429 16.3121C174.069 17.4268 174.389 18.6956 174.389 20.1186C174.389 21.4704 174.081 22.7155 173.464 23.8539C172.871 24.9685 171.934 25.8579 170.654 26.5219C169.373 27.186 167.737 27.518 165.745 27.518H160.8V37.5499H157.029ZM160.8 24.4231H165.567C167.345 24.4231 168.614 24.0436 169.373 23.2847C170.156 22.5021 170.547 21.4467 170.547 20.1186C170.547 18.743 170.156 17.6758 169.373 16.9169C168.614 16.1343 167.345 15.743 165.567 15.743H160.8V24.4231ZM182.267 37.9768C180.773 37.9768 179.539 37.7278 178.567 37.2298C177.595 36.7317 176.871 36.0795 176.397 35.2732C175.923 34.4431 175.686 33.5419 175.686 32.5695C175.686 30.862 176.35 29.5102 177.678 28.5141C179.006 27.518 180.903 27.02 183.37 27.02H187.994V26.6998C187.994 25.3243 187.615 24.2926 186.856 23.6049C186.121 22.9171 185.16 22.5732 183.974 22.5732C182.931 22.5732 182.018 22.8341 181.235 23.3558C180.476 23.8539 180.014 24.6009 179.848 25.597H176.077C176.195 24.3163 176.622 23.2254 177.358 22.3242C178.116 21.3993 179.065 20.6996 180.204 20.2253C181.366 19.7273 182.634 19.4782 184.01 19.4782C186.476 19.4782 188.386 20.1304 189.737 21.4348C191.089 22.7155 191.765 24.4705 191.765 26.6998V37.5499H188.492L188.172 34.5261C187.674 35.4985 186.951 36.3167 186.002 36.9807C185.053 37.6448 183.808 37.9768 182.267 37.9768ZM183.014 34.9174C184.034 34.9174 184.887 34.6803 185.575 34.206C186.287 33.7079 186.832 33.0557 187.212 32.2494C187.615 31.443 187.864 30.5537 187.959 29.5813H183.761C182.267 29.5813 181.2 29.8422 180.559 30.3639C179.943 30.8857 179.634 31.5379 179.634 32.3205C179.634 33.1269 179.931 33.7672 180.524 34.2415C181.14 34.6921 181.97 34.9174 183.014 34.9174ZM203.49 37.9768C201.783 37.9768 200.277 37.5736 198.972 36.7673C197.668 35.9609 196.648 34.8581 195.913 33.4589C195.178 32.0596 194.81 30.4707 194.81 28.692C194.81 26.9132 195.178 25.3361 195.913 23.9606C196.648 22.5613 197.668 21.4704 198.972 20.6878C200.3 19.8814 201.818 19.4782 203.526 19.4782C204.925 19.4782 206.146 19.751 207.19 20.2965C208.257 20.8419 209.087 21.6127 209.68 22.6088V11.9365H213.451V37.5499H210.071L209.68 34.8107C209.111 35.6408 208.328 36.376 207.332 37.0163C206.336 37.6566 205.055 37.9768 203.49 37.9768ZM204.166 34.704C205.779 34.704 207.095 34.1467 208.115 33.032C209.158 31.9173 209.68 30.4825 209.68 28.7275C209.68 26.9488 209.158 25.514 208.115 24.4231C207.095 23.3084 205.779 22.7511 204.166 22.7511C202.553 22.7511 201.225 23.3084 200.182 24.4231C199.138 25.514 198.616 26.9488 198.616 28.7275C198.616 29.8896 198.854 30.9213 199.328 31.8225C199.802 32.7237 200.454 33.4352 201.284 33.9569C202.138 34.455 203.099 34.704 204.166 34.704Z" fill="black"/>
<path d="M42.8447 44.5647L29.0963 30.8163C27.4233 29.1433 24.7218 29.1081 23.0056 30.737L3.3654 49.38C3.12025 49.6127 3.21933 50.0235 3.5436 50.1189C7.90094 51.4005 12.6111 50.362 16.0255 47.3669L24.3282 40.0837C25.3589 39.1797 26.8776 39.1078 27.989 39.9104L33.3275 43.766C36 45.6961 39.3928 46.337 42.5851 45.5147C43.0102 45.4053 43.155 44.8751 42.8447 44.5647Z" fill="url(#paint0_linear_409_233)"/>
<path d="M6.37331 42.8681L20.1216 29.1198C21.7946 27.4467 21.8299 24.7451 20.2009 23.0291L1.55804 3.38883C1.32535 3.14369 0.914506 3.24277 0.819133 3.56703C-0.462439 7.92438 0.576054 12.6345 3.57116 16.049L10.8543 24.3517C11.7584 25.3823 11.8303 26.9011 11.0276 28.0126L7.17201 33.3509C5.24189 36.0235 4.60102 39.4162 5.42331 42.6086C5.53278 43.0337 6.06294 43.1785 6.37331 42.8681Z" fill="url(#paint1_linear_409_233)"/>
<path d="M8.60785 6.75124L22.3561 20.4996C24.0292 22.1726 26.7307 22.2078 28.4468 20.5789L48.0871 1.93597C48.3323 1.70328 48.2332 1.29244 47.9089 1.19706C43.5515 -0.0845067 38.8415 0.953983 35.427 3.94909L27.1243 11.2322C26.0935 12.1363 24.5749 12.2081 23.4634 11.4055L18.1251 7.54995C15.4525 5.61981 12.0598 4.97895 8.86734 5.80123C8.4423 5.91072 8.29747 6.44088 8.60785 6.75124Z" fill="url(#paint2_linear_409_233)"/>
<path d="M45.0789 8.72211L31.3305 22.4704C29.6575 24.1436 29.6223 26.8451 31.2512 28.5611L49.894 48.2013C50.1268 48.4465 50.5377 48.3474 50.633 48.0232C51.9145 43.6659 50.8761 38.9557 47.8809 35.5413L40.5978 27.2385C39.6937 26.2078 39.6219 24.6892 40.4246 23.5777L44.2802 18.2393C46.2103 15.5667 46.8511 12.174 46.0288 8.9816C45.9193 8.55656 45.3892 8.41173 45.0789 8.72211Z" fill="url(#paint3_linear_409_233)"/>
<defs>
<linearGradient id="paint0_linear_409_233" x1="18.0727" y1="66.5451" x2="40.7793" y2="15.9952" gradientUnits="userSpaceOnUse">
<stop stop-color="#B158F7"/>
<stop offset="0.729167" stop-color="#3548EE"/>
</linearGradient>
<linearGradient id="paint1_linear_409_233" x1="-9.16821" y1="18.1174" x2="34.9431" y2="40.8032" gradientUnits="userSpaceOnUse">
<stop stop-color="#3548EE"/>
<stop offset="1" stop-color="#58DAF7"/>
</linearGradient>
<linearGradient id="paint2_linear_409_233" x1="33.3798" y1="-15.2289" x2="10.6732" y2="35.3209" gradientUnits="userSpaceOnUse">
<stop stop-color="#B158F7"/>
<stop offset="0.729167" stop-color="#3548EE"/>
</linearGradient>
<linearGradient id="paint3_linear_409_233" x1="60.6203" y1="33.4729" x2="16.509" y2="10.7871" gradientUnits="userSpaceOnUse">
<stop stop-color="#3548EE"/>
<stop offset="1" stop-color="#58DAF7"/>
</linearGradient>
</defs>
</svg>
