<svg width="250" height="60" viewBox="0 0 250 60" fill="none" xmlns="http://www.w3.org/2000/svg">
<rect width="250" height="60" fill="white"/>
<path d="M93.3479 42.3188C90.8814 42.3188 88.7469 41.7852 86.9445 40.7179C85.1658 39.627 83.7903 38.121 82.8179 36.2C81.8456 34.2553 81.3594 32.0141 81.3594 29.4765C81.3594 26.9152 81.8456 24.674 82.8179 22.753C83.7903 20.8083 85.1658 19.2904 86.9445 18.1995C88.7469 17.1085 90.8814 16.5631 93.3479 16.5631C96.265 16.5631 98.6484 17.2746 100.498 18.6975C102.348 20.1205 103.522 22.1126 104.02 24.674H99.8224C99.4903 23.2273 98.7789 22.0771 97.6879 21.2233C96.597 20.3695 95.1384 19.9426 93.3123 19.9426C90.8221 19.9426 88.8537 20.7964 87.407 22.504C85.9603 24.1878 85.237 26.512 85.237 29.4765C85.237 32.4173 85.9603 34.7296 87.407 36.4135C88.8537 38.0973 90.8221 38.9392 93.3123 38.9392C95.1384 38.9392 96.597 38.5361 97.6879 37.7297C98.7789 36.9234 99.4903 35.8206 99.8224 34.4213H104.02C103.522 36.8878 102.348 38.8206 100.498 40.2199C98.6484 41.6192 96.265 42.3188 93.3479 42.3188ZM115.564 42.3188C113.881 42.3188 112.363 41.9393 111.011 41.1804C109.683 40.3978 108.628 39.3187 107.845 37.9432C107.062 36.5439 106.671 34.9193 106.671 33.0695C106.671 31.2196 107.062 29.6069 107.845 28.2314C108.651 26.8322 109.73 25.7531 111.082 24.9942C112.434 24.2115 113.94 23.8202 115.6 23.8202C117.284 23.8202 118.79 24.2115 120.118 24.9942C121.47 25.7531 122.537 26.8322 123.32 28.2314C124.126 29.6069 124.529 31.2196 124.529 33.0695C124.529 34.9193 124.126 36.5439 123.32 37.9432C122.537 39.3187 121.47 40.3978 120.118 41.1804C118.766 41.9393 117.248 42.3188 115.564 42.3188ZM115.564 39.0815C116.466 39.0815 117.296 38.8562 118.055 38.4056C118.837 37.955 119.466 37.291 119.94 36.4135C120.414 35.5122 120.652 34.3976 120.652 33.0695C120.652 31.7414 120.414 30.6386 119.94 29.7611C119.489 28.8599 118.873 28.184 118.09 27.7334C117.331 27.2828 116.501 27.0575 115.6 27.0575C114.699 27.0575 113.857 27.2828 113.074 27.7334C112.315 28.184 111.699 28.8599 111.224 29.7611C110.75 30.6386 110.513 31.7414 110.513 33.0695C110.513 34.3976 110.75 35.5122 111.224 36.4135C111.699 37.291 112.315 37.955 113.074 38.4056C113.833 38.8562 114.663 39.0815 115.564 39.0815ZM130.03 20.9031C129.319 20.9031 128.726 20.6897 128.251 20.2628C127.801 19.8122 127.575 19.2549 127.575 18.5908C127.575 17.9267 127.801 17.3813 128.251 16.9544C128.726 16.5038 129.319 16.2785 130.03 16.2785C130.742 16.2785 131.323 16.5038 131.773 16.9544C132.248 17.3813 132.485 17.9267 132.485 18.5908C132.485 19.2549 132.248 19.8122 131.773 20.2628C131.323 20.6897 130.742 20.9031 130.03 20.9031ZM128.145 41.8919V24.2471H131.916V41.8919H128.145ZM136.182 41.8919V24.2471H139.526L139.811 27.342C140.356 26.2511 141.15 25.3973 142.194 24.7807C143.261 24.1404 144.483 23.8202 145.858 23.8202C147.993 23.8202 149.664 24.4843 150.874 25.8124C152.107 27.1405 152.724 29.1208 152.724 31.7532V41.8919H148.989V32.1446C148.989 28.7294 147.589 27.0219 144.791 27.0219C143.392 27.0219 142.23 27.5199 141.305 28.516C140.403 29.5121 139.953 30.935 139.953 32.7849V41.8919H136.182ZM154.746 41.8919L161.007 33.0695L154.746 24.2471H158.766L163.497 31.0062L168.193 24.2471H172.249L165.988 33.0695L172.249 41.8919H168.193L163.497 35.1328L158.766 41.8919H154.746ZM174.748 41.8919V16.99H183.464C185.409 16.99 187.021 17.322 188.302 17.986C189.583 18.6264 190.531 19.5157 191.148 20.6541C191.788 21.7688 192.108 23.0376 192.108 24.4605C192.108 25.8124 191.8 27.0575 191.183 28.1958C190.591 29.3105 189.654 30.1998 188.373 30.8639C187.092 31.5279 185.456 31.86 183.464 31.86H178.519V41.8919H174.748ZM178.519 28.765H183.286C185.065 28.765 186.333 28.3856 187.092 27.6266C187.875 26.844 188.266 25.7886 188.266 24.4605C188.266 23.085 187.875 22.0178 187.092 21.2589C186.333 20.4762 185.065 20.0849 183.286 20.0849H178.519V28.765ZM199.986 42.3188C198.492 42.3188 197.259 42.0698 196.286 41.5717C195.314 41.0737 194.591 40.4215 194.116 39.6151C193.642 38.7851 193.405 37.8839 193.405 36.9115C193.405 35.2039 194.069 33.8521 195.397 32.856C196.725 31.86 198.622 31.3619 201.089 31.3619H205.713V31.0418C205.713 29.6662 205.334 28.6346 204.575 27.9468C203.84 27.259 202.879 26.9152 201.694 26.9152C200.65 26.9152 199.737 27.176 198.954 27.6978C198.195 28.1958 197.733 28.9429 197.567 29.939H193.796C193.915 28.6583 194.342 27.5674 195.077 26.6661C195.836 25.7412 196.784 25.0416 197.923 24.5673C199.085 24.0692 200.354 23.8202 201.729 23.8202C204.196 23.8202 206.105 24.4724 207.457 25.7768C208.808 27.0575 209.484 28.8124 209.484 31.0418V41.8919H206.212L205.891 38.8681C205.393 39.8404 204.67 40.6586 203.721 41.3227C202.773 41.9867 201.528 42.3188 199.986 42.3188ZM200.733 39.2594C201.753 39.2594 202.607 39.0222 203.294 38.5479C204.006 38.0499 204.551 37.3977 204.931 36.5913C205.334 35.785 205.583 34.8956 205.678 33.9233H201.48C199.986 33.9233 198.919 34.1841 198.278 34.7059C197.662 35.2277 197.354 35.8798 197.354 36.6625C197.354 37.4688 197.65 38.1092 198.243 38.5835C198.86 39.0341 199.69 39.2594 200.733 39.2594ZM221.209 42.3188C219.502 42.3188 217.996 41.9156 216.691 41.1093C215.387 40.3029 214.367 39.2001 213.632 37.8009C212.897 36.4016 212.529 34.8126 212.529 33.0339C212.529 31.2552 212.897 29.6781 213.632 28.3026C214.367 26.9033 215.387 25.8124 216.691 25.0297C218.02 24.2234 219.537 23.8202 221.245 23.8202C222.644 23.8202 223.866 24.0929 224.909 24.6384C225.976 25.1839 226.806 25.9547 227.399 26.9507V16.2785H231.17V41.8919H227.791L227.399 39.1527C226.83 39.9827 226.047 40.7179 225.051 41.3583C224.055 41.9986 222.775 42.3188 221.209 42.3188ZM221.885 39.0459C223.498 39.0459 224.814 38.4886 225.834 37.374C226.878 36.2593 227.399 34.8245 227.399 33.0695C227.399 31.2908 226.878 29.856 225.834 28.765C224.814 27.6504 223.498 27.093 221.885 27.093C220.273 27.093 218.944 27.6504 217.901 28.765C216.857 29.856 216.336 31.2908 216.336 33.0695C216.336 34.2316 216.573 35.2632 217.047 36.1644C217.521 37.0657 218.174 37.7771 219.004 38.2989C219.858 38.7969 220.818 39.0459 221.885 39.0459Z" fill="black"/>
<path d="M60.5644 48.9068L46.8161 35.1585C45.143 33.4854 42.4415 33.4503 40.7254 35.0792L21.0851 53.7221C20.84 53.9548 20.9391 54.3656 21.2633 54.461C25.6207 55.7426 30.3308 54.7041 33.7452 51.709L42.0479 44.4258C43.0787 43.5218 44.5973 43.4499 45.7088 44.2525L51.0473 48.1081C53.7197 50.0382 57.1125 50.6791 60.3049 49.8568C60.7299 49.7474 60.8747 49.2173 60.5644 48.9068Z" fill="url(#paint0_linear_872_36)"/>
<path d="M24.093 47.2097L37.8413 33.4615C39.5144 31.7883 39.5497 29.0868 37.9206 27.3708L19.2778 7.73047C19.0451 7.48532 18.6342 7.58441 18.5389 7.90867C17.2573 12.266 18.2958 16.9761 21.2909 20.3906L28.574 28.6933C29.4781 29.7239 29.55 31.2427 28.7473 32.3542L24.8917 37.6926C22.9616 40.3651 22.3207 43.7578 23.143 46.9503C23.2525 47.3753 23.7827 47.5201 24.093 47.2097Z" fill="url(#paint1_linear_872_36)"/>
<path d="M26.3276 11.093L40.0759 24.8413C41.7489 26.5144 44.4504 26.5496 46.1666 24.9207L65.8068 6.27777C66.052 6.04508 65.9529 5.63423 65.6287 5.53886C61.2712 4.25729 56.5612 5.29578 53.1467 8.29089L44.844 15.574C43.8133 16.4781 42.2946 16.5499 41.1832 15.7473L35.8448 11.8917C33.1722 9.96161 29.7795 9.32075 26.5871 10.143C26.162 10.2525 26.0172 10.7827 26.3276 11.093Z" fill="url(#paint2_linear_872_36)"/>
<path d="M62.7991 13.0636L49.0507 26.8118C47.3777 28.485 47.3425 31.1865 48.9714 32.9025L67.6142 52.5428C67.8471 52.788 68.2579 52.6889 68.3533 52.3646C69.6347 48.0073 68.5964 43.2972 65.6011 39.8827L58.3181 31.58C57.4139 30.5492 57.3421 29.0306 58.1448 27.9191L62.0004 22.5808C63.9305 19.9082 64.5713 16.5155 63.749 13.3231C63.6396 12.898 63.1094 12.7532 62.7991 13.0636Z" fill="url(#paint3_linear_872_36)"/>
<defs>
<linearGradient id="paint0_linear_872_36" x1="35.7924" y1="70.8872" x2="58.499" y2="20.3373" gradientUnits="userSpaceOnUse">
<stop stop-color="#B158F7"/>
<stop offset="0.729167" stop-color="#3548EE"/>
</linearGradient>
<linearGradient id="paint1_linear_872_36" x1="8.55151" y1="22.459" x2="52.6628" y2="45.1448" gradientUnits="userSpaceOnUse">
<stop stop-color="#3548EE"/>
<stop offset="1" stop-color="#58DAF7"/>
</linearGradient>
<linearGradient id="paint2_linear_872_36" x1="51.0995" y1="-10.8871" x2="28.3929" y2="39.6627" gradientUnits="userSpaceOnUse">
<stop stop-color="#B158F7"/>
<stop offset="0.729167" stop-color="#3548EE"/>
</linearGradient>
<linearGradient id="paint3_linear_872_36" x1="78.3405" y1="37.8144" x2="34.2292" y2="15.1286" gradientUnits="userSpaceOnUse">
<stop stop-color="#3548EE"/>
<stop offset="1" stop-color="#58DAF7"/>
</linearGradient>
</defs>
</svg>
