<svg width="250" height="60" viewBox="0 0 250 60" fill="none" xmlns="http://www.w3.org/2000/svg">
<rect width="250" height="60" fill="white"/>
<path d="M50.3513 30.1753C50.3513 41.5438 41.7296 50.8665 30.7194 51.9771V45.2261H25.9716V51.9186C15.1071 50.662 6.66016 41.3977 6.66016 30.1461C6.66016 18.8945 15.1362 9.63024 26.0299 8.40279V15.4752H30.7777V8.37357C41.7878 9.51334 50.3513 18.8361 50.3513 30.1753Z" fill="#FFC33A"/>
<path d="M19.8547 23.4536L16.6216 20.4727C14.4662 23.1029 13.1846 26.493 13.1846 30.1754C13.1846 33.8577 14.4662 37.2478 16.6216 39.878L19.7382 36.751C18.3692 34.9098 17.5537 32.6303 17.5537 30.1754C17.5828 27.662 18.4275 25.324 19.8547 23.4536ZM28.5056 19.216C32.4086 19.216 35.8165 21.2618 37.7681 24.3304L41.7294 22.3723C39.0788 17.8424 34.1563 14.8031 28.5347 14.8031C24.8938 14.8031 21.6024 16.0597 18.9809 18.1347L22.2723 21.1741C24.0491 19.9466 26.1754 19.216 28.5056 19.216ZM28.5056 41.1347C26.1171 41.1347 23.9326 40.3749 22.1267 39.089L18.9809 42.216C21.6024 44.291 24.8938 45.5477 28.4764 45.5477C34.098 45.5477 39.0205 42.5083 41.6711 37.9784L37.6515 36.108C35.7291 39.1474 32.3504 41.1347 28.5056 41.1347Z" fill="white"/>
<path d="M36.4862 30.1753C36.4862 34.5883 32.9036 38.183 28.5053 38.183C24.1071 38.183 20.5244 34.5883 20.5244 30.1753C20.5244 25.7624 24.1071 22.1677 28.5053 22.1677C32.9036 22.1677 36.4862 25.7624 36.4862 30.1753Z" fill="white"/>
<path d="M32.7292 30.1754C32.7292 32.5134 30.8359 34.413 28.5057 34.413C26.1755 34.413 24.2822 32.5134 24.2822 30.1754C24.2822 27.8374 26.1755 25.9378 28.5057 25.9378C30.8359 25.9378 32.7292 27.8374 32.7292 30.1754Z" fill="#FFC33A"/>
<path d="M58.0117 28.4511C58.0117 22.1385 62.7886 17.4917 69.2549 17.4917C72.3715 17.4917 75.1969 18.5438 77.0902 20.6188L75.6629 22.0508C73.9153 20.2681 71.7598 19.5082 69.3131 19.5082C64.1285 19.5082 60.2254 23.3075 60.2254 28.4219C60.2254 33.5362 64.1285 37.3355 69.3131 37.3355C71.7598 37.3355 73.9153 36.5756 75.6629 34.7637L77.0902 36.1957C75.1969 38.2999 72.3715 39.352 69.2258 39.352C62.7886 39.4104 58.0117 34.7637 58.0117 28.4511Z" fill="black"/>
<path d="M79.1582 31.1398C79.1582 26.3469 82.6535 22.9276 87.3721 22.9276C92.0908 22.9276 95.557 26.3469 95.557 31.1398C95.557 35.9327 92.0908 39.3812 87.3721 39.3812C82.6535 39.3812 79.1582 35.9327 79.1582 31.1398ZM93.3724 31.1398C93.3724 27.3697 90.8383 24.8272 87.4013 24.8272C83.9642 24.8272 81.401 27.3405 81.401 31.1398C81.401 34.9098 83.9642 37.4524 87.4013 37.4524C90.8092 37.4231 93.3724 34.9098 93.3724 31.1398Z" fill="black"/>
<path d="M114.548 23.0445V39.2351H112.451V36.2834C111.315 38.2415 109.218 39.3812 106.655 39.3812C102.548 39.3812 99.8389 37.0725 99.8389 32.4257V23.0445H102.023V32.2211C102.023 35.6697 103.8 37.4232 106.859 37.4232C110.237 37.4232 112.335 35.2313 112.335 31.5489V23.0737H114.548V23.0445Z" fill="black"/>
<path d="M135.491 29.8246V39.2058H133.306V30.0584C133.306 26.6391 131.529 24.8856 128.471 24.8856C125.005 24.8856 122.82 27.0483 122.82 30.7306V39.2058H120.636V23.0445H122.733V26.0254C123.898 24.0673 126.083 22.9276 128.85 22.9276C132.782 22.9276 135.491 25.2071 135.491 29.8246Z" fill="black"/>
<path d="M149.879 38.2414C149.035 39.0012 147.724 39.3812 146.471 39.3812C143.442 39.3812 141.753 37.6569 141.753 34.6759V24.8856H138.869V23.0444H141.753V19.5082H143.937V23.0444H148.831V24.8856H143.937V34.5298C143.937 36.4294 144.928 37.4815 146.734 37.4815C147.636 37.4815 148.51 37.2185 149.122 36.6632L149.879 38.2414Z" fill="black"/>
<path d="M167.298 31.8119H153.812C154.045 35.202 156.637 37.4524 160.161 37.4524C162.113 37.4524 163.86 36.751 165.084 35.3189L166.307 36.7217C164.88 38.446 162.637 39.3812 160.074 39.3812C155.035 39.3812 151.627 35.9327 151.627 31.1398C151.627 26.3469 154.977 22.9276 159.491 22.9276C164.006 22.9276 167.298 26.2884 167.298 31.1398C167.327 31.3151 167.298 31.5489 167.298 31.8119ZM153.812 30.1753H165.259C164.996 27.019 162.695 24.7979 159.52 24.7979C156.375 24.7979 154.074 27.019 153.812 30.1753Z" fill="black"/>
<path d="M179.88 22.9276V25.061C179.706 25.061 179.502 25.0317 179.356 25.0317C176.007 25.0025 173.938 27.1652 173.938 30.9644V39.2058H171.754V23.0445H173.851V26.2007C174.871 24.0673 176.909 22.9276 179.88 22.9276Z" fill="black"/>
<path d="M188.386 21.028H181.279V17.6379H199.484V21.028H192.377V39.1766H188.386V21.028Z" fill="black"/>
<path d="M218.591 35.8157V39.1766H202.483V17.6379H218.154V20.9987H206.474V26.5807H216.843V29.8831H206.474V35.8157H218.591Z" fill="black"/>
<path d="M242.097 17.6379V39.1766H238.806L226.98 24.5934V39.1766H223.019V17.6379H226.31L238.136 32.2211V17.6379H242.097Z" fill="black"/>
</svg>
