<svg width="250" height="60" viewBox="0 0 250 60" fill="none" xmlns="http://www.w3.org/2000/svg">
<rect width="250" height="60" fill="white"/>
<path d="M130.092 36.6473C128.718 36.7017 127.348 36.472 126.067 35.9727C124.786 35.4734 123.622 34.7152 122.647 33.7455C121.697 32.7782 120.952 31.6284 120.459 30.3654C119.965 29.1024 119.732 27.7525 119.774 26.3971C119.738 25.041 119.979 23.6917 120.483 22.4321C120.987 21.1725 121.743 20.029 122.704 19.0719C123.669 18.1022 124.823 17.341 126.094 16.8355C127.365 16.3299 128.727 16.0909 130.094 16.133C132.198 16.0787 134.263 16.7142 135.972 17.9426L134.835 21.4421C133.46 20.4249 131.797 19.8709 130.087 19.86C129.259 19.836 128.436 19.99 127.673 20.3119C126.91 20.6337 126.225 21.1157 125.664 21.7253C124.495 22.9913 123.87 24.6656 123.923 26.3878C123.859 28.1205 124.486 29.8076 125.664 31.0794C126.229 31.6815 126.915 32.1567 127.678 32.4732C128.441 32.7898 129.262 32.9406 130.087 32.9156C131.854 32.9046 133.574 32.3413 135.005 31.3046L136.137 34.7809C134.381 36.0497 132.257 36.7056 130.092 36.6473ZM143.237 36.2805V27.2456L137.156 16.4987H141.65L145.207 23.594L148.768 16.501H153.267L147.19 27.2456V36.2886L143.237 36.2805ZM155.36 36.2805V16.4987H161.662C163.39 16.4212 165.08 17.0251 166.367 18.1805C166.968 18.7565 167.439 19.454 167.748 20.2264C168.058 20.9988 168.199 21.8284 168.162 22.6597C168.19 23.496 168.04 24.3287 167.724 25.1032C167.407 25.8778 166.93 26.5766 166.324 27.1539C165.706 27.7373 164.978 28.1925 164.182 28.4933C163.387 28.7941 162.54 28.9346 161.69 28.9066H159.342V36.2828L155.36 36.2805ZM159.345 25.4558H161.126C161.907 25.4873 162.669 25.2076 163.245 24.6781C163.517 24.4184 163.73 24.104 163.872 23.7556C164.013 23.4073 164.079 23.033 164.065 22.6573C164.079 22.2914 164.014 21.9266 163.875 21.5877C163.737 21.2489 163.526 20.9439 163.259 20.6934C162.691 20.1824 161.945 19.9138 161.181 19.9448H159.345V25.4558ZM170.677 36.277V16.4952H174.662V24.5214H182.888V16.4952H186.869V36.277H182.888V28.1092H174.658V36.277H170.677ZM201.453 31.192H194.727L193.003 36.2782H188.987L195.995 16.4963H200.174L207.182 36.2782H203.17L201.453 31.192ZM200.408 27.884L198.087 20.7619L195.798 27.884H200.408Z" fill="black"/>
<path d="M121.248 43.2528H121.79V41.0278L123.262 38.5032H122.652L121.521 40.5055L120.409 38.5032H119.777L121.249 41.0278L121.248 43.2528ZM128.396 40.8792C128.384 41.2014 128.439 41.5224 128.556 41.8229C128.672 42.1234 128.849 42.397 129.075 42.6272C129.3 42.8574 129.57 43.0394 129.868 43.1621C130.166 43.2848 130.486 43.3457 130.809 43.3411C131.132 43.3457 131.453 43.2849 131.752 43.1622C132.051 43.0396 132.323 42.8576 132.55 42.6272C132.777 42.3974 132.954 42.124 133.073 41.8236C133.191 41.5232 133.248 41.202 133.239 40.8792C133.247 40.5578 133.191 40.238 133.072 39.9389C132.954 39.6398 132.777 39.3675 132.552 39.1382C132.326 38.9085 132.056 38.7267 131.758 38.6037C131.461 38.4806 131.141 38.4188 130.819 38.422C130.497 38.4181 130.177 38.4794 129.878 38.6023C129.58 38.7252 129.31 38.907 129.084 39.137C128.858 39.3663 128.682 39.6386 128.564 39.9377C128.446 40.2369 128.389 40.5567 128.398 40.878L128.396 40.8792ZM128.965 40.8792C128.954 40.6284 128.993 40.3779 129.081 40.1427C129.168 39.9074 129.303 39.6925 129.476 39.5107C129.649 39.3284 129.857 39.183 130.087 39.0832C130.317 38.9835 130.566 38.9315 130.817 38.9304C131.068 38.9315 131.316 38.9835 131.547 39.0832C131.777 39.183 131.985 39.3284 132.157 39.5107C132.331 39.6925 132.465 39.9074 132.553 40.1427C132.641 40.3779 132.68 40.6284 132.668 40.8792C132.681 41.1301 132.642 41.381 132.555 41.6166C132.468 41.8522 132.334 42.0677 132.161 42.25C131.988 42.4328 131.779 42.5784 131.548 42.6782C131.317 42.778 131.068 42.8297 130.817 42.8303C130.565 42.8297 130.316 42.778 130.085 42.6782C129.854 42.5784 129.646 42.4328 129.473 42.25C129.3 42.0677 129.166 41.8522 129.079 41.6166C128.991 41.381 128.953 41.1301 128.965 40.8792ZM140.867 43.3411C141.107 43.3589 141.347 43.3244 141.572 43.24C141.796 43.1557 142 43.0234 142.168 42.8524C142.336 42.681 142.464 42.4753 142.544 42.2494C142.625 42.0235 142.655 41.7829 142.633 41.5443V38.5056H142.091V41.5396C142.112 41.709 142.095 41.8809 142.042 42.0431C141.989 42.2053 141.901 42.3537 141.783 42.4775C141.666 42.6015 141.522 42.6979 141.363 42.7597C141.204 42.8215 141.033 42.8472 140.863 42.835C140.693 42.8471 140.524 42.8216 140.365 42.7602C140.207 42.6987 140.065 42.603 139.948 42.4798C139.832 42.357 139.745 42.2101 139.692 42.0495C139.64 41.889 139.623 41.7189 139.644 41.5513V38.5125H139.095V41.5594C139.072 41.7979 139.102 42.0385 139.182 42.2643C139.262 42.4901 139.391 42.6956 139.559 42.8663C139.729 43.0363 139.934 43.1669 140.16 43.2489C140.386 43.331 140.627 43.3624 140.866 43.3411H140.867ZM148.768 43.254H149.317V41.1914H150.13L151.201 43.2528H151.81L150.63 41.0765C150.886 40.9857 151.105 40.8142 151.254 40.5878C151.403 40.3614 151.475 40.0925 151.458 39.8218C151.458 38.9954 150.949 38.5067 149.978 38.5067H148.771L148.768 43.254ZM149.317 40.7109V38.9954H149.942C150.613 38.9954 150.877 39.3273 150.877 39.8299C150.892 39.9512 150.879 40.0743 150.839 40.1897C150.799 40.3051 150.732 40.4096 150.645 40.495C150.558 40.5804 150.452 40.6444 150.336 40.6821C150.219 40.7197 150.096 40.73 149.975 40.7121L149.317 40.7109ZM164.067 42.2976C164.163 42.6124 164.361 42.8862 164.63 43.0755C164.899 43.2648 165.223 43.3587 165.552 43.3422C165.736 43.358 165.921 43.3351 166.095 43.2752C166.27 43.2152 166.43 43.1194 166.565 42.994C166.7 42.8689 166.808 42.7169 166.881 42.5478C166.954 42.3788 166.991 42.1963 166.99 42.0121C166.99 40.4927 164.759 40.7167 164.759 39.6315C164.759 39.5302 164.78 39.4301 164.821 39.3376C164.862 39.2452 164.923 39.1625 164.998 39.0952C165.074 39.0279 165.163 38.9775 165.26 38.9472C165.356 38.917 165.458 38.9077 165.559 38.9199C165.75 38.9196 165.936 38.9763 166.095 39.0828C166.253 39.1894 166.376 39.3408 166.448 39.5177L166.912 39.3273C166.812 39.0539 166.629 38.8189 166.388 38.6558C166.147 38.4926 165.86 38.4096 165.569 38.4185C165.399 38.4012 165.227 38.4196 165.064 38.4726C164.901 38.5255 164.751 38.6119 164.623 38.7261C164.496 38.8404 164.393 38.9801 164.323 39.1361C164.252 39.2922 164.215 39.4613 164.214 39.6326C164.214 41.1659 166.438 40.8606 166.438 42.0469C166.439 42.1569 166.418 42.2661 166.374 42.3672C166.331 42.4683 166.266 42.5589 166.185 42.633C166.103 42.7071 166.007 42.763 165.902 42.7971C165.798 42.8311 165.687 42.8424 165.577 42.8303C165.346 42.8423 165.118 42.7757 164.93 42.6415C164.741 42.5073 164.604 42.3132 164.54 42.091L164.067 42.2976ZM172.613 40.8804C172.601 41.2025 172.656 41.5236 172.773 41.824C172.889 42.1245 173.066 42.3982 173.292 42.6284C173.517 42.8586 173.787 43.0405 174.085 43.1632C174.383 43.2859 174.703 43.3468 175.026 43.3422C175.349 43.3469 175.67 43.2861 175.969 43.1634C176.268 43.0407 176.54 42.8587 176.767 42.6284C176.993 42.3985 177.171 42.1252 177.29 41.8248C177.408 41.5244 177.465 41.2032 177.456 40.8804C177.464 40.5589 177.407 40.2391 177.289 39.94C177.171 39.6409 176.994 39.3686 176.769 39.1393C176.543 38.9097 176.273 38.7279 175.975 38.6048C175.678 38.4818 175.358 38.42 175.036 38.4232C174.714 38.4195 174.394 38.4809 174.096 38.6038C173.798 38.7267 173.528 38.9084 173.302 39.1382C173.077 39.3674 172.9 39.6398 172.782 39.9389C172.664 40.238 172.608 40.5578 172.616 40.8792L172.613 40.8804ZM173.181 40.8804C173.169 40.6291 173.208 40.3779 173.295 40.1421C173.383 39.9062 173.517 39.6907 173.691 39.5084C173.864 39.3258 174.072 39.1802 174.303 39.0804C174.534 38.9807 174.782 38.9288 175.034 38.9281C175.285 38.9292 175.533 38.9811 175.764 39.0809C175.994 39.1806 176.202 39.3261 176.374 39.5084C176.548 39.6902 176.682 39.9051 176.77 40.1403C176.858 40.3755 176.897 40.6261 176.885 40.8769C176.897 41.1279 176.859 41.3788 176.771 41.6144C176.684 41.85 176.55 42.0655 176.377 42.2477C176.204 42.4304 175.995 42.5761 175.764 42.6759C175.533 42.7757 175.284 42.8274 175.033 42.828C174.781 42.8283 174.533 42.7776 174.302 42.6791C174.071 42.5805 173.862 42.4361 173.688 42.2546C173.515 42.0727 173.381 41.8575 173.293 41.622C173.206 41.3866 173.167 41.1359 173.179 40.885L173.181 40.8804ZM185.083 43.3422C185.322 43.36 185.563 43.3256 185.787 43.2412C186.012 43.1568 186.216 43.0245 186.384 42.8536C186.552 42.6822 186.68 42.4764 186.76 42.2506C186.84 42.0247 186.871 41.7841 186.849 41.5454V38.5067H186.306V41.5396C186.328 41.709 186.311 41.8809 186.258 42.0431C186.205 42.2053 186.116 42.3537 185.999 42.4775C185.881 42.6015 185.738 42.6979 185.579 42.7597C185.42 42.8215 185.249 42.8472 185.078 42.835C184.909 42.8471 184.739 42.8216 184.581 42.7602C184.423 42.6987 184.281 42.603 184.164 42.4798C184.048 42.357 183.961 42.2101 183.908 42.0495C183.855 41.889 183.839 41.7189 183.86 41.5513V38.5125H183.311V41.5594C183.288 41.7977 183.318 42.0381 183.398 42.2637C183.478 42.4893 183.607 42.6945 183.775 42.8652C183.944 43.0354 184.148 43.1666 184.372 43.2496C184.597 43.3327 184.837 43.3654 185.076 43.3457L185.083 43.3422ZM192.976 43.2552H193.525V39.491L196.142 43.2552H196.684V38.5079H196.142V42.2848L193.525 38.5079H192.976V43.2552ZM202.842 43.2552H203.818C204.149 43.3042 204.486 43.278 204.805 43.1786C205.124 43.0792 205.417 42.9091 205.661 42.6811C205.906 42.453 206.096 42.1727 206.217 41.8612C206.338 41.5496 206.387 41.2148 206.361 40.8815C206.382 40.5495 206.329 40.217 206.207 39.9078C206.084 39.5986 205.894 39.3205 205.651 39.0935C205.407 38.8665 205.117 38.6963 204.8 38.595C204.483 38.4937 204.148 38.464 203.818 38.5079H202.842V43.2552ZM203.391 42.7665V39.0024H203.926C204.178 38.9811 204.431 39.0152 204.668 39.1023C204.905 39.1893 205.121 39.3271 205.299 39.5061C205.477 39.685 205.614 39.9006 205.701 40.138C205.787 40.3754 205.82 40.6288 205.798 40.8804C205.826 41.1342 205.796 41.391 205.712 41.632C205.628 41.873 205.491 42.092 205.311 42.2732C205.131 42.4537 204.914 42.592 204.675 42.6782C204.436 42.7643 204.18 42.7961 203.927 42.7711L203.391 42.7665Z" fill="black"/>
<path d="M102.182 28.2716C102.182 30.4479 99.7215 32.9145 88.4859 34.1611V35.8023C88.4858 36.0127 88.4442 36.2209 88.3635 36.4152C88.2829 36.6095 88.1648 36.7859 88.0159 36.9345C87.8671 37.0832 87.6904 37.201 87.496 37.2814C87.3016 37.3617 87.0933 37.403 86.883 37.4029H83.8977C83.4729 37.4029 83.0656 37.2344 82.765 36.9343C82.4645 36.6341 82.2953 36.227 82.2947 35.8023V34.666C81.9198 34.688 81.5368 34.7078 81.1503 34.7263V44.7919C81.1503 45.0023 81.1088 45.2106 81.0282 45.405C80.9476 45.5993 80.8295 45.7759 80.6806 45.9245C80.5318 46.0732 80.355 46.1911 80.1606 46.2714C79.9661 46.3517 79.7577 46.3928 79.5473 46.3925H76.5632C76.3528 46.3927 76.1445 46.3514 75.9501 46.271C75.7557 46.1907 75.5791 46.0728 75.4302 45.9242C75.2814 45.7755 75.1632 45.5991 75.0826 45.4048C75.002 45.2105 74.9604 45.0023 74.9602 44.7919V34.926L73.839 34.9422V35.1163C73.839 35.3268 73.7975 35.5351 73.717 35.7296C73.6364 35.924 73.5183 36.1006 73.3694 36.2493C73.2206 36.3981 73.0439 36.516 72.8494 36.5965C72.6549 36.6769 72.4465 36.7183 72.2361 36.7181H69.2531C68.8281 36.7181 68.4206 36.5493 68.12 36.249C67.8195 35.9486 67.6504 35.5413 67.6501 35.1163V34.9538C67.2516 34.9538 66.8585 34.9488 66.4709 34.9387V37.6374C66.4707 37.8478 66.4291 38.056 66.3484 38.2503C66.2676 38.4446 66.1494 38.621 66.0004 38.7696C65.8514 38.9182 65.6746 39.0359 65.4801 39.1161C65.2856 39.1963 65.0772 39.2373 64.8668 39.2368H61.8838C61.6735 39.2371 61.4653 39.196 61.271 39.1157C61.0766 39.0355 60.9001 38.9177 60.7513 38.7692C60.6025 38.6206 60.4845 38.4442 60.404 38.25C60.3234 38.0558 60.282 37.8476 60.282 37.6374V34.7356C59.9268 34.717 59.5786 34.6996 59.2374 34.6787V35.8023C59.2371 36.2269 59.0682 36.634 58.7678 36.9342C58.4674 37.2343 58.0602 37.4029 57.6356 37.4029H54.6491C54.2244 37.4029 53.817 37.2344 53.5165 36.9343C53.2159 36.6341 53.0468 36.227 53.0462 35.8023V34.1633C49.6744 33.8744 46.3513 33.1699 43.1523 32.0659C43.1848 32.3051 46.328 34.2353 46.3431 34.3131C47.3443 39.9836 50.2693 45.1358 54.6252 48.9019C58.9812 52.6679 64.502 54.8176 70.2576 54.9889C76.0133 55.1602 81.6522 53.3427 86.2244 49.8424C90.7967 46.3421 94.0229 41.3731 95.3596 35.7721C95.4002 35.5748 103.071 33.4368 102.182 28.2716Z" fill="#3DF0FF"/>
<path d="M46.5511 24.7187L46.5082 24.9079H46.4896C46.3348 25.6539 46.2145 26.4114 46.1286 27.1806C46.1205 27.2467 40.4098 27.4417 45.7804 25.1134C43.3789 25.8388 42 26.6803 42 27.588C42 29.1967 46.3248 30.3412 53.0511 31.0202V27.422C53.0512 27.2116 53.0928 27.0032 53.1735 26.8089C53.2542 26.6145 53.3725 26.438 53.5214 26.2893C53.6704 26.1407 53.8472 26.0228 54.0417 25.9426C54.2363 25.8623 54.4447 25.8211 54.6551 25.8214H57.6335C57.8439 25.8213 58.0524 25.8626 58.2468 25.943C58.4413 26.0234 58.618 26.1414 58.7669 26.2901C58.9157 26.4389 59.0338 26.6155 59.1144 26.8099C59.195 27.0043 59.2364 27.2127 59.2364 27.4232V31.4856L60.2811 31.5379V21.7369C60.2811 21.3121 60.4498 20.9047 60.7502 20.6043C61.0506 20.3039 61.458 20.1351 61.8828 20.1351H64.8658C65.0764 20.1348 65.285 20.176 65.4797 20.2564C65.6744 20.3367 65.8513 20.4546 66.0004 20.6034C66.1495 20.7521 66.2678 20.9288 66.3485 21.1233C66.4293 21.3178 66.4709 21.5263 66.4711 21.7369V31.7387C66.858 31.7456 67.2511 31.751 67.6504 31.7549V17.1115C67.6505 16.9011 67.6921 16.6929 67.7727 16.4986C67.8534 16.3043 67.9715 16.1278 68.1203 15.9792C68.2692 15.8306 68.4458 15.7127 68.6402 15.6324C68.8346 15.552 69.043 15.5107 69.2533 15.5109H72.2468C72.4571 15.5107 72.6654 15.552 72.8598 15.6324C73.0542 15.7127 73.2309 15.8306 73.3797 15.9792C73.5286 16.1278 73.6467 16.3043 73.7273 16.4986C73.8079 16.6929 73.8495 16.9011 73.8497 17.1115V31.7596L74.9709 31.7445V28.6222C74.9708 28.4116 75.0121 28.2031 75.0926 28.0086C75.1731 27.814 75.2912 27.6373 75.4401 27.4884C75.5889 27.3395 75.7657 27.2215 75.9603 27.141C76.1548 27.0605 76.3633 27.0191 76.5739 27.0192H79.558C79.7684 27.0191 79.9767 27.0604 80.1711 27.1407C80.3655 27.2211 80.5421 27.3389 80.691 27.4876C80.8398 27.6362 80.9579 27.8127 81.0386 28.007C81.1192 28.2013 81.1608 28.4095 81.1609 28.6199V31.5599L82.3054 31.5054V25.826C82.3063 25.4015 82.4756 24.9947 82.7761 24.6949C83.0766 24.395 83.4838 24.2266 83.9083 24.2266H86.8832C87.3078 24.2263 87.7152 24.3946 88.0158 24.6945C88.3163 24.9944 88.4855 25.4014 88.4861 25.826V31.0608C93.3472 30.5872 96.9941 29.8757 98.741 28.9286C97.8113 29.0858 96.856 28.9709 95.9901 28.5978C95.9228 27.3707 95.7653 26.1502 95.5188 24.9462H95.5038L95.4898 24.8789H95.5038C94.3222 19.2706 91.2526 14.2373 86.8074 10.6194C82.3621 7.00154 76.8103 5.01805 71.0789 5.00012C65.3475 4.98219 59.7834 6.93091 55.3157 10.5209C50.8479 14.1109 47.7468 19.1249 46.5302 24.7257L46.5511 24.7187Z" fill="#FF1AB7"/>
</svg>
