<svg width="250" height="60" viewBox="0 0 250 60" fill="none" xmlns="http://www.w3.org/2000/svg">
<rect width="250" height="60" fill="white"/>
<path d="M88 42.6037H96.0251C103.984 42.6037 109.136 37.4188 109.136 30.2853C109.136 23.1519 104.017 18 96.0251 18H88V42.6037ZM93.1189 38.1453V22.4584H96.1572C100.946 22.4584 104.017 25.4967 104.017 30.2853C104.017 35.074 100.946 38.1453 96.1572 38.1453H93.1189ZM110.787 22.9538H115.741V18H110.787V22.9538ZM110.787 42.6037H115.741V24.572H110.787V42.6037ZM129.534 24.572L125.439 35.9987L121.344 24.572H116.225L123.292 42.6037H127.585L134.653 24.572H129.534ZM151.875 33.0594C151.875 28.0727 147.978 24.1757 142.925 24.1757C137.773 24.1757 133.81 28.1717 133.81 33.5548C133.81 38.7728 137.542 43 143.255 43C146.954 43 149.926 41.2497 151.016 38.6077L147.053 36.7252C146.36 37.9472 145.072 38.7067 143.321 38.7067C140.878 38.7067 139.259 37.2536 138.962 34.9749H151.644C151.809 34.4795 151.875 33.786 151.875 33.0594ZM139.061 31.3421C139.557 29.2616 140.977 28.1387 142.925 28.1387C144.973 28.1387 146.426 29.4267 146.624 31.3421H139.061Z" fill="black"/>
<path d="M178.399 18L172.884 38.4425L167.468 18H163.703L158.287 38.5086L152.771 18H149.502L156.371 42.6037H159.938L165.552 22.0291L171.133 42.6037H174.733L181.602 18H178.399ZM189.059 24.7041C185.823 24.7041 182.983 26.5535 181.992 28.9313L184.535 30.2523C185.295 28.535 186.946 27.4122 189.059 27.4122C191.371 27.4122 193.022 28.7332 193.022 30.7477V31.2431L186.946 32.5971C183.412 33.3897 181.332 35.1731 181.332 37.749C181.332 40.8203 183.841 43 187.573 43C189.819 43 191.9 41.9102 193.088 40.1598V42.6037H195.863V30.7477C195.863 27.181 193.055 24.7041 189.059 24.7041ZM187.738 40.4571C185.658 40.4571 184.337 39.4003 184.337 37.749C184.337 36.3289 185.625 35.2391 187.606 34.8098L193.022 33.5548V35.074C193.022 38.1453 190.81 40.4571 187.738 40.4571ZM198.409 42.6037H201.249V18H198.409V42.6037ZM204.434 42.6037H207.274V18H204.434V42.6037ZM226.144 33.0925C226.144 28.6341 222.974 24.7041 217.987 24.7041C213.1 24.7041 209.467 28.535 209.467 33.819C209.467 39.103 213.199 43 218.218 43C221.818 43 224.658 41.0515 225.748 38.6407L223.271 37.3197C222.347 39.103 220.728 40.424 218.251 40.424C215.18 40.424 212.571 38.1783 212.439 34.7107H226.012C226.111 34.1493 226.144 33.5878 226.144 33.0925ZM212.505 32.2668C212.901 29.0964 215.246 27.214 217.987 27.214C220.563 27.214 222.974 29.3606 223.007 32.2668H212.505ZM235.36 42.8018C235.855 42.8018 236.549 42.7688 237.11 42.6367V40.325C236.747 40.391 236.252 40.424 235.888 40.424C232.883 40.424 232.685 38.3765 232.685 37.2536V27.8085H236.912V25.1004H232.685V19.4201H229.845V22.5244C229.845 24.0766 228.854 25.1004 227.335 25.1004H226.443V27.8085H229.845V37.2536C229.845 40.7873 231.826 42.8018 235.36 42.8018Z" fill="black"/>
<path fill-rule="evenodd" clip-rule="evenodd" d="M30.7535 17.7575C38.8664 7.48167 51.4462 11.8825 58.1705 20.313C64.8791 28.7238 62.5183 38.5828 61.9785 41.2875C61.9177 41.592 61.7636 41.9721 62.0454 42.1877C62.3591 42.4292 62.7854 41.8993 63.2301 41.0288C64.0294 39.4332 64.6504 37.7704 65.0929 36.0416C65.5357 34.3122 65.7897 32.5555 65.8559 30.772C66.2512 13.4216 48.2205 -0.330911 32.2063 8.10075C22.505 13.2075 20.2868 23.0093 22.8933 30.3158C23.3114 31.5302 23.8799 32.6702 24.5977 33.7348C25.3161 34.7999 26.1594 35.7532 27.1282 36.5959C31.1181 39.9887 37.8424 40.9557 41.7757 36.9789C44.9151 33.8038 44.2116 29.0913 41.1953 31.6022C33.8251 37.7347 24.3028 28.0679 30.7559 17.7575H30.7535ZM21.1348 47.9397C35.0455 55.2843 53.4235 50.0261 54.7813 33.4208C55.3764 26.1315 51.8649 21.2252 45.9344 17.597C42.4721 15.4786 50.8585 15.054 56.1401 21.7563C59.8785 26.4997 60.6873 32.8029 59.1726 38.5626C56.6331 48.2222 48.1022 54.2431 38.8474 54.9414C38.0237 54.9985 37.2001 55.0139 36.3752 54.9875C35.5504 54.9615 34.7285 54.8942 33.9108 54.7848C33.0925 54.6761 32.2819 54.526 31.479 54.3346C30.6762 54.1436 29.8846 53.913 29.105 53.6426C28.3253 53.3714 27.5612 53.0622 26.813 52.7141C26.0643 52.3661 25.3352 51.9814 24.6257 51.5598C23.9156 51.1382 23.2293 50.6819 22.565 50.1907C21.9013 49.6996 21.2644 49.1766 20.6531 48.6215C20.6156 48.5867 20.5853 48.5464 20.5621 48.5011C20.5389 48.4553 20.5246 48.4074 20.5193 48.3561C20.5133 48.3049 20.5175 48.2551 20.53 48.2057C20.543 48.1556 20.5639 48.1106 20.5936 48.0681C20.6233 48.0268 20.659 47.9916 20.7013 47.9624C20.7435 47.9338 20.7899 47.9137 20.8398 47.9016C20.8892 47.8899 20.9397 47.8873 20.9903 47.8939C21.0408 47.9005 21.089 47.9159 21.1342 47.9397H21.1348Z" fill="#03C7FF"/>
<path fill-rule="evenodd" clip-rule="evenodd" d="M47.1087 42.2422C38.9958 52.5187 26.4166 48.1179 19.6911 39.6869C12.9829 31.2766 15.3433 21.4164 15.8845 18.7129C15.9445 18.4079 16.0991 18.0278 15.8167 17.812C15.5033 17.5711 15.0769 18.1004 14.632 18.971C13.8327 20.5666 13.2119 22.2294 12.7694 23.9588C12.3264 25.6882 12.0724 27.445 12.0064 29.2291C11.6103 46.579 29.6411 60.3307 45.6558 51.8998C55.3565 46.7931 57.575 36.9905 54.9693 29.6846C54.5506 28.4702 53.9823 27.3302 53.2646 26.2657C52.5462 25.2005 51.7026 24.2466 50.7339 23.4034C46.7441 20.0118 40.0198 19.0448 36.0865 23.021C32.9471 26.1961 33.6512 30.9055 36.6675 28.3977C44.0371 22.2627 53.5607 31.932 47.1069 42.2422H47.1087ZM56.7274 12.0606C42.8167 4.71604 24.4381 9.97438 23.0809 26.5791C22.4856 33.8683 25.998 38.7752 31.9277 42.4029C35.3901 44.5211 27.0036 44.9457 21.7221 38.2441C17.9832 33.5002 17.175 27.1969 18.6897 21.4373C21.2291 11.7775 29.76 5.75736 39.0148 5.05918C39.8379 5.00209 40.6621 4.98603 41.487 5.0122C42.3118 5.03836 43.1331 5.10616 43.9514 5.21499C44.7697 5.32442 45.5803 5.47428 46.3831 5.66518C47.186 5.85608 47.9769 6.08683 48.7566 6.35741C49.5368 6.6286 50.3006 6.93784 51.049 7.28574C51.7978 7.63364 52.5272 8.01842 53.2364 8.44006C53.946 8.86172 54.633 9.31783 55.2965 9.80907C55.9603 10.2997 56.5979 10.823 57.209 11.3785C57.2467 11.413 57.2764 11.4534 57.2994 11.4986C57.3221 11.5444 57.3364 11.5926 57.3419 11.6437C57.347 11.6943 57.3433 11.7442 57.3305 11.7936C57.3181 11.843 57.2965 11.8887 57.2672 11.9304C57.2376 11.972 57.2021 12.0077 57.1596 12.0362C57.1175 12.0648 57.0718 12.085 57.0216 12.0969C56.9722 12.1088 56.9225 12.1118 56.872 12.1052C56.8215 12.0993 56.7732 12.0844 56.7281 12.0606H56.7274Z" fill="#00A0F1"/>
</svg>
