<svg width="250" height="60" viewBox="0 0 250 60" fill="none" xmlns="http://www.w3.org/2000/svg">
<rect width="250" height="60" fill="white"/>
<path d="M25 15.329C25 14.6666 25.2613 14.3355 25.7839 14.3355H47.775C48.2701 14.3355 48.5178 14.6379 48.5178 15.2426L48.4765 20.2533C48.4765 21.0308 48.1326 21.4196 47.445 21.4196H35.3148C34.6822 21.4196 34.3658 21.6932 34.3658 22.2403V26.3007C34.3658 26.8767 34.6134 27.1646 35.1085 27.1646H42.6589C43.209 27.1646 43.4842 27.4526 43.4842 28.0285V33.2985C43.4842 33.7879 43.2365 34.0328 42.7414 34.0328H35.026C34.5859 34.0328 34.3658 34.2488 34.3658 34.6807V45.134C34.3658 45.9692 33.912 46.3868 33.0043 46.3868H26.114C25.6739 46.3868 25.3713 46.3004 25.2063 46.1277C25.0688 45.9549 25 45.6813 25 45.3068V15.329Z" fill="black"/>
<path d="M50.8438 15.329C50.8438 15.041 50.9264 14.8106 51.0914 14.6379C51.2564 14.4363 51.5176 14.3355 51.8753 14.3355H76.5483C76.9058 14.3355 77.1672 14.4363 77.3322 14.6379C77.4972 14.8106 77.5797 15.041 77.5797 15.329V20.4693C77.5797 21.0164 77.2772 21.29 76.6721 21.29H69.3692C69.0392 21.29 68.874 21.434 68.874 21.722V45.4364C68.874 46.07 68.6128 46.3868 68.0901 46.3868H60.251C59.7558 46.3868 59.5082 46.0988 59.5082 45.5228V21.8947C59.5082 21.4916 59.3569 21.29 59.0544 21.29H51.7928C51.1601 21.29 50.8438 21.0164 50.8438 20.4693V15.329Z" fill="black"/>
<path d="M122.144 14.3355C122.694 14.3355 123.065 14.5083 123.258 14.8538C123.478 15.1706 123.519 15.5738 123.381 16.0633L115.006 45.3068C114.758 46.0268 114.263 46.3868 113.52 46.3868H107.827C107.029 46.3868 106.534 46.0268 106.341 45.3068L102.05 30.102C101.968 29.7564 101.872 29.5836 101.762 29.5836C101.652 29.5547 101.528 29.7564 101.39 30.1883L97.1406 45.3068C96.948 46.0268 96.453 46.3868 95.6552 46.3868H89.7552C89.0126 46.3868 88.5174 46.0268 88.2699 45.3068L79.853 16.0633C79.743 15.5738 79.7842 15.1706 79.9767 14.8538C80.1969 14.5083 80.5681 14.3355 81.0907 14.3355H87.8985C88.3387 14.3355 88.6412 14.4219 88.8062 14.5946C88.9988 14.7386 89.1363 14.9546 89.2188 15.2426L93.5923 31.2682C93.6748 31.585 93.7573 31.7578 93.8398 31.7865C93.9499 31.7865 94.0324 31.6714 94.0874 31.441L98.4196 15.2426C98.4746 14.9546 98.5984 14.7386 98.7909 14.5946C98.9835 14.4219 99.2998 14.3355 99.7399 14.3355H105.516C105.956 14.3355 106.259 14.4219 106.424 14.5946C106.616 14.7386 106.754 14.9546 106.836 15.2426L111.375 31.657C111.43 31.8297 111.513 31.9306 111.623 31.9593C111.733 31.9882 111.801 31.9161 111.829 31.7433L116.037 15.2426C116.092 14.9546 116.216 14.7386 116.409 14.5946C116.601 14.4219 116.917 14.3355 117.358 14.3355H122.144Z" fill="black"/>
<path fillRule="evenodd" clipRule="evenodd" d="M208.582 15.6709C205.743 15.6709 203.322 16.2982 201.275 17.5079L201.263 17.514C199.209 18.7031 197.612 20.3801 196.459 22.5754C195.313 24.7603 194.716 27.3693 194.716 30.4453C194.716 33.4946 195.3 36.0935 196.422 38.2819C197.543 40.4399 199.122 42.1003 201.175 43.2893C203.22 44.4468 205.675 45.0513 208.582 45.0513C211.457 45.0513 213.877 44.4347 215.893 43.2539L215.898 43.2503C217.955 42.0604 219.536 40.3978 220.658 38.2363C221.777 36.0788 222.362 33.496 222.362 30.4453C222.362 27.3693 221.765 24.7603 220.619 22.5754L220.612 22.5644C219.49 20.3751 217.909 18.7016 215.857 17.514L215.84 17.5043C213.825 16.2985 211.42 15.6709 208.582 15.6709ZM199.95 15.1981C202.457 13.7178 205.35 13 208.582 13C211.812 13 214.691 13.717 217.173 15.1998C219.67 16.6468 221.601 18.6993 222.95 21.3274C224.333 23.9644 225 27.0179 225 30.4453C225 33.844 224.347 36.8694 222.993 39.479C221.64 42.0835 219.708 44.1217 217.211 45.5675C214.727 47.0214 211.834 47.7222 208.582 47.7222C205.305 47.7222 202.39 47.0378 199.882 45.6175L199.872 45.6115C197.372 44.1656 195.438 42.1265 194.086 39.5211L194.083 39.5154C192.732 36.8813 192.079 33.8444 192.079 30.4453C192.079 27.0156 192.747 23.9603 194.132 21.322C195.509 18.6961 197.452 16.6448 199.95 15.1981ZM133.571 16.0916H142.206C143.181 16.0916 143.96 16.1055 144.551 16.1323L144.572 16.133C148.202 16.2411 151.09 16.9418 153.302 18.1588L153.308 18.1619C155.575 19.395 157.218 21.0361 158.293 23.0812L158.296 23.0872C159.387 25.136 159.952 27.534 159.952 30.319C159.952 33.1268 159.375 35.6004 158.249 37.7706C157.143 39.8758 155.483 41.5415 153.223 42.7707C150.992 43.9842 148.13 44.6307 144.568 44.6307H133.571V16.0916ZM131.622 14.0159C132.166 13.5054 132.884 13.4206 133.391 13.4206H142.206C143.195 13.4206 144.015 13.4346 144.659 13.4636C148.558 13.5808 151.881 14.3377 154.558 15.8104C157.238 17.2686 159.277 19.2714 160.619 21.8229C161.946 24.316 162.589 27.1607 162.589 30.319C162.589 33.5108 161.93 36.4201 160.582 39.0164L160.579 39.0221C159.211 41.6265 157.159 43.6614 154.471 45.1236C151.753 46.6021 148.43 47.3017 144.568 47.3017H133.475C132.858 47.3017 132.155 47.1407 131.617 46.5863C131.084 46.0364 130.934 45.3246 130.934 44.7043V15.8076C130.934 15.3216 131.021 14.5499 131.622 14.0159ZM173.172 16.0916C173.154 16.1233 173.134 16.1637 173.113 16.2141L163.002 44.6307H168.582L170.209 39.9611C170.319 39.596 170.534 39.219 170.913 38.9422C171.302 38.6579 171.733 38.5738 172.097 38.5738H181.038C181.32 38.5738 182.062 38.6235 182.511 39.2631C182.684 39.4692 182.805 39.6944 182.893 39.9114L182.907 39.9449L184.5 44.6307H191.734L181.741 16.3535C181.705 16.2575 181.67 16.1974 181.647 16.1623C181.622 16.1277 181.605 16.1143 181.605 16.1143C181.605 16.1143 181.6 16.1098 181.584 16.1055C181.569 16.1006 181.53 16.0916 181.461 16.0916H173.172ZM171.469 14.0139C171.983 13.5309 172.637 13.4206 173.151 13.4206H181.461C182.061 13.4206 182.657 13.5804 183.172 13.9658C183.677 14.3445 184.007 14.8664 184.213 15.4216L184.22 15.4417L194.336 44.0643C194.568 44.6654 194.544 45.2808 194.365 45.8431C194.273 46.1806 194.091 46.5614 193.741 46.8604C193.359 47.187 192.911 47.3017 192.511 47.3017H184.244C183.784 47.3017 183.287 47.1838 182.855 46.8501C182.436 46.5268 182.193 46.0914 182.062 45.6639L180.559 41.2447H172.558L170.98 45.7735C170.827 46.2249 170.544 46.5721 170.234 46.8303L170.223 46.8388L170.213 46.847C169.723 47.2378 169.133 47.3017 168.722 47.3017H162.312C161.955 47.3017 161.573 47.2188 161.22 46.9983C160.866 46.7781 160.622 46.4707 160.461 46.1501L160.45 46.1279L160.439 46.1053C160.1 45.3601 160.203 44.5881 160.442 43.9468L170.658 15.2366L170.672 15.2031C170.841 14.7978 171.086 14.3494 171.469 14.0139ZM181.036 41.2447H181.041H181.038H181.036ZM205.57 20.2185C206.466 19.7054 207.486 19.4776 208.582 19.4776C209.665 19.4776 210.676 19.7068 211.561 20.2246C212.451 20.7452 213.134 21.5122 213.629 22.4622C214.575 24.2812 214.961 27.0574 214.961 30.5714C214.961 33.9614 214.579 36.6472 213.613 38.3732C212.58 40.2721 210.795 41.1606 208.582 41.1606C206.326 41.1606 204.497 40.2851 203.429 38.3821L203.418 38.3642C202.487 36.645 202.118 33.9644 202.118 30.5714C202.118 27.0574 202.504 24.2812 203.45 22.4622L203.459 22.4449C203.969 21.4962 204.669 20.7344 205.57 20.2185ZM205.779 23.7152C205.152 24.9265 204.754 27.1393 204.754 30.5714C204.754 33.899 205.141 35.9832 205.726 37.0707C206.233 37.9664 207.073 38.4896 208.582 38.4896C210.019 38.4896 210.819 37.9789 211.305 37.0799L211.315 37.0617C211.92 35.9832 212.325 33.9056 212.325 30.5714C212.325 27.1313 211.923 24.916 211.295 23.7066C211.001 23.1423 210.645 22.7737 210.241 22.5371C209.833 22.2978 209.297 22.1485 208.582 22.1485C207.848 22.1485 207.294 22.2992 206.869 22.5432C206.45 22.7832 206.083 23.1545 205.779 23.7152ZM140.865 20.7229C141.228 20.215 141.769 20.0244 142.248 20.0244H143.261C145.239 20.0244 146.985 20.3875 148.42 21.2055C149.863 22.0278 150.926 23.2506 151.597 24.8211C152.255 26.3328 152.551 28.1565 152.551 30.2349C152.551 32.571 152.184 34.5869 151.349 36.1913C150.549 37.7806 149.37 38.9703 147.818 39.6925C146.34 40.3806 144.624 40.6979 142.712 40.6979H142.417C141.998 40.6979 141.447 40.5825 141.017 40.1233C140.6 39.6776 140.508 39.1303 140.508 38.7315V21.9487C140.508 21.6308 140.558 21.1513 140.865 20.7229ZM143.145 22.6953V38.0204C144.579 37.9763 145.759 37.7113 146.717 37.2656C147.692 36.8117 148.452 36.0699 149.002 34.9722L149.012 34.9524C149.579 33.8664 149.914 32.3246 149.914 30.2349C149.914 28.3897 149.648 26.9624 149.182 25.8951L149.178 25.8855C148.725 24.8224 148.044 24.056 147.127 23.5332C146.201 23.0052 144.938 22.6953 143.261 22.6953H143.145ZM175.541 23.5347C175.827 23.2972 176.175 23.179 176.526 23.179C176.876 23.179 177.223 23.2972 177.509 23.5347C177.773 23.7536 177.919 24.0184 178 24.2222L178.011 24.2492L180.562 31.4985L180.57 31.5282C180.675 31.8746 180.815 32.4956 180.54 33.1035C180.18 33.9018 179.423 34.0942 178.93 34.0942H174.122C173.679 34.0942 172.85 33.9588 172.45 33.1192C172.127 32.4464 172.33 31.7639 172.465 31.4069L175.041 24.2447L175.051 24.2222C175.133 24.0184 175.277 23.7536 175.541 23.5347ZM176.515 27.9529L175.266 31.4232H177.736L176.515 27.9529Z" fill="#FDC307"/>
</svg>
