<svg width="250" height="60" viewBox="0 0 250 60" fill="none" xmlns="http://www.w3.org/2000/svg">
<rect width="250" height="60" fill="white"/>
<g opacity="0.7">
<path d="M72.4336 23.5607C72.4274 23.2595 72.8896 22.7827 72.8896 22.7827L87.0326 6.47565C87.0326 6.47565 87.2572 6.21646 87.5239 5.91005C87.7907 5.60363 88.5721 5.50318 88.7906 6.1755C88.8539 6.37009 88.8722 6.41611 88.9521 6.69896C89.4115 8.33269 89.8987 11.0349 89.0873 13.3437C87.7887 17.0382 85.3726 18.0769 83.3758 19.1231C80.6514 20.5506 76.6897 22.4462 73.8694 23.775C73.572 23.9151 73.1972 24.1383 72.8738 24.0859C72.5505 24.0334 72.4399 23.8619 72.4336 23.5607Z" fill="#BF671C"/>
<path d="M72.4421 26.6555C72.5639 26.3799 73.1844 26.1435 73.1844 26.1435L92.8973 17.35C92.8973 17.35 93.2104 17.2102 93.5817 17.0454C93.953 16.8806 94.7036 17.1201 94.6172 17.8217C94.5922 18.0248 94.5893 18.0742 94.5421 18.3643C94.2673 20.039 93.5657 22.6936 91.8539 24.4423C89.1144 27.2407 86.4858 27.1598 84.234 27.2631C81.1615 27.4041 76.77 27.4459 73.6524 27.457C73.3237 27.4581 72.8896 27.5018 72.6189 27.3175C72.3481 27.1333 72.3204 26.931 72.4421 26.6555Z" fill="#BF671C"/>
<path d="M72.4354 29.6168C72.6586 29.4145 73.3217 29.4506 73.3217 29.4506L94.9074 29.426C94.9074 29.426 95.2504 29.4255 95.6566 29.4258C96.0629 29.426 96.6514 29.9499 96.2873 30.5559C96.182 30.7313 96.1592 30.7753 95.9982 31.0212C95.0666 32.4397 93.3469 34.5803 91.0721 35.4825C87.4318 36.9264 85.0628 35.7843 82.9632 34.9636C80.0985 33.844 76.0687 32.0977 73.2156 30.841C72.9147 30.7085 72.5004 30.572 72.3279 30.2936C72.1553 30.0152 72.2122 29.8191 72.4354 29.6168Z" fill="#BF671C"/>
<path d="M71.0926 32.1408C71.3834 32.0618 71.9578 32.395 71.9578 32.395L91.202 42.1728C91.202 42.1728 91.5078 42.3281 91.8697 42.5127C92.2315 42.6974 92.518 43.4313 91.9185 43.8061C91.745 43.9145 91.7048 43.9434 91.4497 44.0894C89.9756 44.9303 87.4716 46.0568 85.0351 45.828C81.1361 45.4618 79.5438 43.3687 78.0456 41.6843C76.0014 39.3862 73.2037 36.0008 71.232 33.5857C71.0241 33.3311 70.7169 33.0214 70.6896 32.695C70.6622 32.3686 70.8019 32.2197 71.0926 32.1408Z" fill="#BF671C"/>
<path d="M68.8524 34.0797C69.1449 34.1517 69.4857 34.7215 69.4857 34.7215L81.5731 52.6023C81.5731 52.6023 81.7652 52.8864 81.9921 53.2233C82.219 53.5602 82.1137 54.3409 81.4078 54.3779C81.2035 54.3886 81.1543 54.3944 80.8604 54.3984C79.1637 54.419 76.4278 54.19 74.4082 52.8086C71.1762 50.598 70.7987 47.9956 70.3053 45.7963C69.632 42.7955 68.8269 38.4786 68.2737 35.4109C68.2154 35.0874 68.0969 34.6676 68.2313 34.3689C68.3656 34.0702 68.5599 34.0078 68.8524 34.0797Z" fill="#BF671C"/>
<path d="M59.602 23.5607C59.6083 23.2597 59.146 22.7829 59.146 22.7829L45.0031 6.4757C45.0031 6.4757 44.7784 6.21663 44.5117 5.91009C44.245 5.60356 43.4635 5.50322 43.245 6.17554C43.1817 6.37014 43.1635 6.41616 43.0835 6.69901C42.6241 8.33274 42.1369 11.0349 42.9484 13.3437C44.2469 17.0383 46.663 18.0769 48.6599 19.1231C51.3838 20.5501 55.3455 22.4458 58.1658 23.7747C58.4633 23.9148 58.838 24.138 59.1616 24.0856C59.4851 24.0331 59.5958 23.8619 59.602 23.5607Z" fill="#BF671C"/>
<path d="M59.5861 26.6587C59.4645 26.3831 58.8441 26.1464 58.8441 26.1464L39.1345 17.3441C39.1345 17.3441 38.8214 17.2042 38.4501 17.0392C38.0789 16.8742 37.3282 17.1134 37.4143 17.8151C37.4392 18.0182 37.4421 18.0676 37.4892 18.3577C37.7633 20.0325 38.4637 22.6875 40.1748 24.437C42.9131 27.2367 45.5418 27.1569 47.7937 27.2611C50.8655 27.4033 55.2572 27.447 58.3749 27.4595C58.7037 27.4608 59.1376 27.5047 59.4087 27.3204C59.6798 27.1362 59.7077 26.9343 59.5861 26.6587Z" fill="#BF671C"/>
<path d="M59.599 29.6168C59.376 29.4145 58.7129 29.4502 58.7129 29.4502L37.1272 29.4151C37.1272 29.4151 36.7842 29.4144 36.3779 29.4145C35.9717 29.4146 35.383 29.9381 35.7467 30.5443C35.852 30.7198 35.8747 30.7638 36.0356 31.0098C36.9665 32.4287 38.6852 34.5701 40.9596 35.4734C44.5991 36.919 46.9686 35.7781 49.0686 34.9584C51.9333 33.8403 55.9639 32.096 58.8177 30.8407C59.1187 30.7082 59.533 30.5721 59.7058 30.2936C59.8787 30.0151 59.8221 29.8192 59.599 29.6168Z" fill="#BF671C"/>
<path d="M60.9417 32.1406C60.6511 32.0617 60.0766 32.3948 60.0766 32.3948L40.8322 42.1726C40.8322 42.1726 40.5264 42.3278 40.1645 42.5125C39.8027 42.6972 39.5162 43.4311 40.1157 43.8058C40.2892 43.9143 40.3294 43.9431 40.5845 44.0891C42.0586 44.9301 44.5626 46.0566 46.9991 45.8278C50.8981 45.4616 52.4904 43.3685 53.9886 41.6841C56.0323 39.3863 58.8301 36.0009 60.8018 33.5858C61.0097 33.3311 61.3169 33.0215 61.3444 32.6949C61.3718 32.3682 61.2324 32.2195 60.9417 32.1406Z" fill="#BF671C"/>
<path d="M63.1847 34.0811C62.8923 34.153 62.5515 34.7229 62.5515 34.7229L50.4639 52.6037C50.4639 52.6037 50.2719 52.8877 50.0449 53.2247C49.8179 53.5617 49.9233 54.3423 50.6292 54.3793C50.8335 54.39 50.8827 54.3958 51.1766 54.3998C52.8733 54.4204 55.6092 54.1914 57.6289 52.81C60.8608 50.5994 61.2383 47.997 61.7317 45.7977C62.4048 42.7974 63.2099 38.4806 63.7632 35.4128C63.8214 35.0892 63.94 34.6695 63.8056 34.3706C63.6712 34.0717 63.4772 34.0092 63.1847 34.0811Z" fill="#BF671C"/>
</g>
<path d="M59.602 22.9502C59.6083 22.6491 59.146 22.1723 59.146 22.1723L45.0031 5.86513C45.0031 5.86513 44.7784 5.60606 44.5117 5.29953C44.245 4.99299 43.4635 4.89266 43.245 5.56498C43.1817 5.75957 43.1635 5.80559 43.0835 6.08844C42.6241 7.72217 42.1369 10.4244 42.9484 12.7331C44.2469 16.4277 46.663 17.4664 48.6599 18.5125C51.3838 19.9396 55.3455 21.8352 58.1658 23.1641C58.4633 23.3042 58.838 23.5274 59.1616 23.475C59.4851 23.4226 59.5958 23.2514 59.602 22.9502Z" fill="url(#paint0_linear_874_54)"/>
<path d="M72.4336 22.9503C72.4274 22.6491 72.8896 22.1723 72.8896 22.1723L87.0326 5.86521C87.0326 5.86521 87.2572 5.60614 87.5239 5.2996C87.7907 4.99307 88.5721 4.89274 88.7906 5.56506C88.8539 5.75965 88.8722 5.80567 88.9521 6.08852C89.4115 7.72225 89.8987 10.4245 89.0873 12.7332C87.7887 16.4278 85.3726 17.4664 83.3758 18.5126C80.6514 19.9401 76.6897 21.8358 73.8694 23.1646C73.572 23.3047 73.1972 23.5279 72.8739 23.4754C72.5505 23.423 72.4399 23.2514 72.4336 22.9503Z" fill="url(#paint1_linear_874_54)"/>
<path d="M59.5859 26.0483C59.4642 25.7729 58.8436 25.5364 58.8436 25.5364L39.1307 16.7428C39.1307 16.7428 38.8176 16.6031 38.4462 16.4382C38.0749 16.2733 37.3244 16.5129 37.4108 17.2145C37.4357 17.4176 37.4387 17.4671 37.4859 17.7572C37.7607 19.4318 38.4622 22.0864 40.1741 23.8351C42.9135 26.6335 45.5422 26.5526 47.794 26.6559C50.8658 26.7967 55.2574 26.8385 58.375 26.8497C58.7039 26.8508 59.1378 26.8945 59.4088 26.7101C59.6798 26.5258 59.7076 26.3238 59.5859 26.0483Z" fill="url(#paint2_linear_874_54)"/>
<path d="M72.4498 26.0482C72.5714 25.7726 73.1918 25.5359 73.1918 25.5359L92.9014 16.7336C92.9014 16.7336 93.2144 16.5938 93.5857 16.4287C93.957 16.2636 94.7076 16.5029 94.6216 17.2046C94.5967 17.4077 94.5938 17.4571 94.5467 17.7473C94.2726 19.4221 93.5722 22.077 91.861 23.8265C89.1227 26.6262 86.494 26.5464 84.2421 26.6506C81.1697 26.793 76.7782 26.8368 73.6604 26.8492C73.3317 26.8505 72.8977 26.8943 72.6268 26.7102C72.3559 26.526 72.3282 26.3238 72.4498 26.0482Z" fill="url(#paint3_linear_874_54)"/>
<path d="M72.4421 29.0124C72.6652 28.81 73.3283 28.8459 73.3283 28.8459L94.9139 28.8108C94.9139 28.8108 95.2568 28.8102 95.6631 28.8102C96.0694 28.8102 96.6581 29.3338 96.2944 29.94C96.1891 30.1155 96.1664 30.1595 96.0055 30.4054C95.0745 31.8244 93.3559 33.9658 91.0815 34.8691C87.442 36.3147 85.0724 35.1738 82.9724 34.3541C80.1072 33.2359 76.0767 31.4917 73.2229 30.2362C72.922 30.1039 72.5076 29.9676 72.3349 29.6893C72.1622 29.4109 72.219 29.2149 72.4421 29.0124Z" fill="url(#paint4_linear_874_54)"/>
<path d="M59.599 29.0063C59.376 28.8039 58.7129 28.8397 58.7129 28.8397L37.1274 28.8047C37.1274 28.8047 36.7844 28.804 36.3781 28.8041C35.9719 28.8042 35.3832 29.3277 35.7469 29.9339C35.8522 30.1094 35.8749 30.1534 36.0358 30.3994C36.9667 31.8183 38.6854 33.9597 40.9597 34.863C44.5992 36.3085 46.9688 35.1677 49.0687 34.3479C51.9334 33.2297 55.9639 31.4854 58.8177 30.2302C59.1187 30.0977 59.533 29.9615 59.7058 29.683C59.8787 29.4045 59.8221 29.2088 59.599 29.0063Z" fill="url(#paint5_linear_874_54)"/>
<path d="M60.9419 31.5306C60.6513 31.4519 60.0772 31.7851 60.0772 31.7851L40.8433 41.5641C40.8433 41.5641 40.5377 41.7193 40.176 41.904C39.8144 42.0887 39.5282 42.8224 40.1275 43.1968C40.301 43.3052 40.3412 43.334 40.5962 43.4799C42.0699 44.3202 44.5733 45.4455 47.0088 45.2162C50.906 44.8491 52.4972 42.7564 53.9942 41.0722C56.0364 38.7747 58.8321 35.39 60.8025 32.9754C61.0102 32.7207 61.3172 32.4111 61.3445 32.0846C61.3718 31.7581 61.2325 31.6096 60.9419 31.5306Z" fill="url(#paint6_linear_874_54)"/>
<path d="M71.0935 31.5303C71.3842 31.4514 71.9586 31.7846 71.9586 31.7846L91.2028 41.5624C91.2028 41.5624 91.5087 41.7176 91.8705 41.9023C92.2323 42.087 92.5194 42.8211 91.9195 43.196C91.746 43.3045 91.7058 43.3334 91.4507 43.4794C89.9766 44.3203 87.4725 45.4468 85.036 45.218C81.137 44.8518 79.5448 42.7587 78.0466 41.0743C76.0024 38.7762 73.2047 35.3909 71.233 32.9757C71.0251 32.7211 70.7179 32.4114 70.6905 32.085C70.6632 31.7585 70.8027 31.6092 71.0935 31.5303Z" fill="url(#paint7_linear_874_54)"/>
<path d="M68.8533 33.4694C69.1458 33.5413 69.4866 34.1112 69.4866 34.1112L81.5739 51.992C81.5739 51.992 81.7661 52.276 81.9929 52.613C82.2198 52.9499 82.1149 53.731 81.4085 53.768C81.2042 53.7788 81.155 53.7845 80.8612 53.7885C79.1644 53.8092 76.4286 53.5801 74.4089 52.1987C71.177 49.9881 70.7994 47.3857 70.306 45.1864C69.6327 42.1857 68.8276 37.8689 68.2745 34.801C68.2162 34.4775 68.0977 34.0577 68.232 33.759C68.3664 33.4603 68.5608 33.3975 68.8533 33.4694Z" fill="url(#paint8_linear_874_54)"/>
<path d="M63.1847 33.4709C62.8923 33.5428 62.5515 34.1127 62.5515 34.1127L50.4641 51.9935C50.4641 51.9935 50.2719 52.2775 50.045 52.6145C49.8182 52.9514 49.9234 53.7321 50.6293 53.7691C50.8337 53.7798 50.8828 53.7855 51.1767 53.7895C52.8734 53.8102 55.6093 53.5812 57.629 52.1997C60.8609 49.9891 61.2385 47.3868 61.7318 45.1874C62.4048 42.1871 63.2099 37.8704 63.7632 34.8025C63.8214 34.4789 63.94 34.0593 63.8056 33.7604C63.6712 33.4615 63.4772 33.399 63.1847 33.4709Z" fill="url(#paint9_linear_874_54)"/>
<path d="M115.488 30.2901C115.234 30.2837 114.917 30.279 114.536 30.2757C114.155 30.2725 113.741 30.2678 113.294 30.2614C112.846 30.2551 112.38 30.2503 111.894 30.2471L110.47 30.2377C110.007 30.2345 109.566 30.2361 109.147 30.2425C108.728 30.2489 108.363 30.2584 108.052 30.271V33.0989C108.052 33.6384 108.06 34.1098 108.076 34.5128C108.092 34.9159 108.111 35.2634 108.133 35.5554C108.155 35.8473 108.184 36.0917 108.219 36.2886C108.247 36.4553 108.284 36.6205 108.328 36.7836V36.8217H106.043V36.7836C106.088 36.6205 106.124 36.4553 106.153 36.2886C106.187 36.0918 106.218 35.8474 106.243 35.5554C106.268 35.2633 106.288 34.9158 106.3 34.5128C106.313 34.1098 106.319 33.6384 106.319 33.0989V26.9004C106.319 26.3609 106.313 25.8896 106.3 25.4865C106.288 25.0834 106.269 24.7343 106.243 24.4391C106.218 24.1439 106.187 23.898 106.153 23.7012C106.124 23.5345 106.088 23.3692 106.043 23.2062V23.1681H108.328V23.2062C108.283 23.3692 108.247 23.5345 108.219 23.7012C108.184 23.898 108.155 24.1439 108.133 24.4391C108.111 24.7343 108.092 25.0834 108.076 25.4865C108.06 25.8896 108.052 26.3609 108.052 26.9004V29.3379C108.382 29.3506 108.756 29.3586 109.175 29.3618C109.594 29.365 110.032 29.365 110.489 29.3618C110.946 29.3586 111.411 29.3538 111.884 29.3474C112.357 29.3411 112.814 29.3331 113.255 29.3236C113.696 29.314 114.109 29.3029 114.493 29.2902C114.877 29.2775 115.209 29.2648 115.488 29.2521V26.9007C115.488 26.3611 115.48 25.8898 115.464 25.4867C115.448 25.0836 115.429 24.7345 115.407 24.4393C115.384 24.1442 115.356 23.8982 115.321 23.7015C115.293 23.5347 115.256 23.3695 115.211 23.2064V23.1683H117.497V23.2064C117.452 23.3695 117.415 23.5347 117.387 23.7015C117.352 23.8982 117.322 24.1442 117.297 24.4393C117.271 24.7345 117.252 25.0836 117.239 25.4867C117.226 25.8898 117.22 26.3611 117.22 26.9007V33.0991C117.22 33.6387 117.226 34.11 117.239 34.5131C117.252 34.9161 117.271 35.2636 117.297 35.5556C117.322 35.8476 117.352 36.092 117.387 36.2888C117.415 36.4555 117.452 36.6208 117.497 36.7839V36.8217H115.212V36.7836C115.257 36.6205 115.293 36.4553 115.322 36.2886C115.357 36.0918 115.385 35.8474 115.407 35.5554C115.43 35.2633 115.449 34.9158 115.465 34.5128C115.481 34.1098 115.489 33.6384 115.489 33.0989L115.488 30.2901ZM126.447 22.9396C127.45 22.9294 128.446 23.1053 129.385 23.4585C130.25 23.7838 131.042 24.2791 131.713 24.9153C132.374 25.5517 132.896 26.3184 133.246 27.167C133.622 28.0882 133.81 29.0758 133.798 30.071C133.798 30.6707 133.728 31.2683 133.588 31.8514C133.452 32.4266 133.246 32.983 132.974 33.5081C132.704 34.0288 132.37 34.5134 131.979 34.9507C131.585 35.3922 131.132 35.7768 130.632 36.0933C130.113 36.4205 129.55 36.6737 128.961 36.8456C128.321 37.0308 127.657 37.1223 126.99 37.117C125.988 37.1272 124.993 36.9545 124.053 36.6076C123.187 36.2885 122.395 35.7978 121.724 35.165C121.063 34.5321 120.541 33.7684 120.192 32.9227C119.814 32.0001 119.626 31.0107 119.64 30.0139C119.639 29.4142 119.71 28.8166 119.849 28.2334C119.986 27.6555 120.193 27.096 120.463 26.5671C120.731 26.0434 121.063 25.5555 121.453 25.1151C121.845 24.6725 122.297 24.2864 122.795 23.968C123.315 23.6374 123.879 23.3825 124.471 23.211C125.113 23.0259 125.779 22.9345 126.447 22.9396ZM126.99 36.2597C127.654 36.2678 128.312 36.1382 128.923 35.8788C129.502 35.6283 130.018 35.2509 130.432 34.7744C130.874 34.2565 131.209 33.6561 131.417 33.0079C131.663 32.2437 131.782 31.4445 131.77 30.6419C131.777 29.7248 131.664 28.8107 131.432 27.9234C131.232 27.1445 130.892 26.4088 130.427 25.7527C129.994 25.1497 129.425 24.6572 128.766 24.315C128.047 23.9562 127.251 23.7781 126.447 23.7961C125.784 23.7879 125.126 23.9159 124.514 24.1722C123.936 24.4185 123.421 24.7908 123.005 25.2619C122.563 25.7741 122.228 26.3701 122.02 27.0145C121.774 27.777 121.655 28.5747 121.668 29.3758C121.661 30.2925 121.773 31.2063 122.001 32.0943C122.197 32.878 122.536 33.6189 123.001 34.2794C123.435 34.8869 124.006 35.3843 124.667 35.732C125.386 36.0964 126.184 36.2776 126.99 36.2597ZM137.949 35.9844C138.639 35.9872 139.329 35.9554 140.015 35.8892C140.644 35.8257 141.193 35.7527 141.662 35.6702C142.208 35.5813 142.707 35.4766 143.157 35.356L142.881 36.8979C142.805 36.8915 142.69 36.8852 142.538 36.8788C142.386 36.8725 142.217 36.8661 142.029 36.8598C141.842 36.8535 141.645 36.8487 141.439 36.8455C141.233 36.8422 141.038 36.8391 140.854 36.8359C140.67 36.8327 140.506 36.8296 140.364 36.8264C140.221 36.8233 140.117 36.8217 140.053 36.8217H135.94V36.7836C135.985 36.6205 136.021 36.4553 136.05 36.2886C136.085 36.0918 136.115 35.8474 136.14 35.5554C136.166 35.2633 136.185 34.9158 136.198 34.5128C136.21 34.1098 136.217 33.6384 136.217 33.0989V26.9004C136.217 26.3609 136.21 25.8896 136.198 25.4865C136.185 25.0834 136.166 24.7343 136.14 24.4391C136.115 24.1439 136.085 23.898 136.05 23.7012C136.021 23.5345 135.985 23.3692 135.94 23.2062V23.1681H138.225V23.2062C138.181 23.3692 138.144 23.5345 138.116 23.7012C138.081 23.898 138.052 24.1439 138.03 24.4391C138.008 24.7343 137.989 25.0834 137.973 25.4865C137.957 25.8896 137.949 26.3609 137.949 26.9004L137.949 35.9844ZM148.28 30.2721V33.0999C148.28 33.6395 148.286 34.1108 148.299 34.5139C148.311 34.9169 148.331 35.2644 148.356 35.5564C148.382 35.8484 148.412 36.0928 148.447 36.2896C148.475 36.456 148.511 36.6209 148.556 36.7836V36.8217H146.271V36.7836C146.316 36.6205 146.352 36.4553 146.38 36.2886C146.415 36.0918 146.444 35.8474 146.466 35.5554C146.488 35.2633 146.507 34.9158 146.523 34.5128C146.539 34.1098 146.547 33.6384 146.547 33.0989V30.4615L142.292 24.6724C142.146 24.4757 142.001 24.2948 141.858 24.1298C141.716 23.9647 141.581 23.8203 141.454 23.6965C141.327 23.5727 141.213 23.4695 141.111 23.3868C141.01 23.3042 140.93 23.2439 140.873 23.2059V23.1678H143.758C143.782 23.4156 143.845 23.6581 143.944 23.8867C144.116 24.306 144.341 24.7012 144.615 25.0625L147.738 29.3377L150.794 24.8721C150.902 24.7135 151.01 24.5516 151.118 24.3866C151.226 24.2216 151.324 24.0629 151.413 23.9106C151.493 23.7755 151.565 23.6356 151.628 23.4917C151.675 23.3901 151.703 23.2801 151.709 23.168H153.565V23.206C153.426 23.3266 153.238 23.506 153.003 23.744C152.723 24.0378 152.468 24.3547 152.241 24.6914L148.28 30.2721ZM166.456 35.2222C166.456 35.2958 166.448 35.3692 166.432 35.4411C166.418 35.5149 166.379 35.5819 166.323 35.6315C166.029 35.8528 165.718 36.0517 165.395 36.2266C165.048 36.4134 164.687 36.571 164.314 36.6979C163.906 36.8365 163.487 36.9401 163.062 37.0077C162.585 37.083 162.102 37.1196 161.619 37.1172C160.544 37.1303 159.475 36.958 158.458 36.6078C157.553 36.2958 156.719 35.8052 156.006 35.1653C155.322 34.5409 154.782 33.776 154.421 32.923C154.037 32.002 153.846 31.012 153.859 30.0142C153.859 29.4131 153.937 28.8145 154.092 28.2338C154.247 27.6514 154.476 27.0913 154.773 26.5671C155.075 26.0359 155.446 25.5476 155.877 25.1151C156.324 24.6675 156.828 24.2818 157.377 23.968C157.96 23.6355 158.584 23.381 159.234 23.211C159.95 23.025 160.688 22.9337 161.428 22.9396C161.733 22.9396 162.044 22.9539 162.362 22.9825C162.679 23.0111 162.993 23.0523 163.304 23.1062C163.615 23.1602 163.915 23.2252 164.204 23.3012C164.493 23.3773 164.767 23.4629 165.028 23.5583L165.675 25.3197L165.599 25.3578C165.335 25.1233 165.048 24.9158 164.742 24.7384C164.411 24.5443 164.063 24.3787 163.704 24.2433C163.328 24.1015 162.941 23.9916 162.547 23.9148C162.144 23.8354 161.734 23.7956 161.324 23.7957C160.574 23.7871 159.829 23.9145 159.124 24.1719C158.48 24.4082 157.894 24.7798 157.406 25.2615C156.912 25.7597 156.531 26.3573 156.287 27.0145C156.009 27.7702 155.874 28.5708 155.887 29.3758C155.879 30.291 156.008 31.2024 156.268 32.0798C156.499 32.868 156.884 33.6025 157.401 34.2409C157.91 34.8563 158.554 35.3468 159.282 35.6747C160.034 36.0206 160.911 36.1936 161.914 36.1936C162.314 36.1977 162.712 36.1626 163.105 36.0889C163.408 36.0327 163.705 35.945 163.99 35.827C164.192 35.7473 164.378 35.6311 164.538 35.4843C164.641 35.4 164.708 35.2787 164.723 35.1462V34.7749C164.723 34.3306 164.717 33.9465 164.704 33.6228C164.692 33.2991 164.673 33.0183 164.647 32.7802C164.622 32.5422 164.593 32.3375 164.561 32.1661C164.532 32.0054 164.494 31.8465 164.447 31.6901V31.652H166.732V31.6901C166.693 31.8233 166.657 31.9805 166.622 32.1614C166.587 32.3423 166.557 32.5564 166.532 32.8037C166.506 33.0513 166.487 33.3418 166.474 33.6755C166.461 34.0091 166.455 34.3947 166.455 34.8323L166.456 35.2222ZM170.922 33.0989C170.922 33.6384 170.93 34.1098 170.946 34.5128C170.962 34.9159 170.981 35.2634 171.003 35.5554C171.025 35.8473 171.054 36.0917 171.089 36.2886C171.117 36.4553 171.153 36.6205 171.198 36.7836V36.8217H168.913V36.7836C168.957 36.6205 168.994 36.4553 169.022 36.2886C169.057 36.0918 169.086 35.8474 169.108 35.5554C169.13 35.2633 169.149 34.9174 169.165 34.5175C169.181 34.1177 169.189 33.6448 169.189 33.0989V26.9004C169.189 26.3609 169.181 25.8896 169.165 25.4865C169.149 25.0834 169.13 24.7359 169.108 24.4439C169.086 24.152 169.057 23.906 169.022 23.706C168.994 23.5376 168.958 23.3708 168.913 23.2062V23.1681L169.313 23.2062C169.433 23.2189 169.568 23.2268 169.717 23.23C169.866 23.2332 170.02 23.2348 170.179 23.2348C170.516 23.2272 170.851 23.197 171.184 23.1443C171.719 23.0773 172.258 23.047 172.797 23.0538C173.37 23.0484 173.94 23.1319 174.487 23.3014C174.979 23.4527 175.437 23.6985 175.835 24.025C176.215 24.342 176.52 24.7407 176.725 25.1914C176.944 25.6839 177.053 26.2185 177.044 26.7576C177.048 27.1877 176.988 27.616 176.868 28.0288C176.757 28.4054 176.59 28.7633 176.373 29.0904C176.16 29.4076 175.902 29.6915 175.606 29.933C175.302 30.1812 174.966 30.3877 174.607 30.5471L177.949 35.2412C178.114 35.476 178.268 35.6792 178.41 35.8506C178.538 36.0059 178.675 36.1538 178.82 36.2934C178.936 36.4059 179.062 36.5078 179.196 36.598C179.312 36.6749 179.436 36.7373 179.567 36.7837V36.8217H176.815C176.778 36.6529 176.716 36.4907 176.63 36.3409C176.521 36.1345 176.398 35.9357 176.263 35.7458L172.893 30.9947C172.747 31.0074 172.601 31.0185 172.455 31.0281C172.309 31.0377 172.16 31.0424 172.007 31.0424C171.83 31.0424 171.65 31.0361 171.469 31.0234C171.286 31.0104 171.103 30.9881 170.922 30.9568L170.922 33.0989ZM170.922 30.2139C171.094 30.2522 171.269 30.2793 171.445 30.2949C171.623 30.3108 171.794 30.3188 171.96 30.3188C172.403 30.3241 172.845 30.2516 173.264 30.1045C173.646 29.9694 173.99 29.7459 174.268 29.4523C174.557 29.1387 174.776 28.7672 174.911 28.3626C175.072 27.8696 175.149 27.353 175.139 26.8344C175.144 26.3974 175.09 25.9618 174.977 25.5395C174.884 25.1823 174.721 24.8473 174.497 24.5541C174.283 24.2832 174.007 24.0677 173.692 23.9256C173.335 23.7696 172.948 23.6933 172.559 23.7018C172.209 23.6958 171.858 23.7181 171.512 23.7684C171.311 23.798 171.113 23.8458 170.921 23.9112L170.922 30.2139ZM189.879 36.8217V36.7836C189.894 36.7375 189.904 36.6895 189.907 36.6408C189.913 36.5774 189.917 36.5202 189.917 36.4695C189.914 36.2497 189.887 36.031 189.836 35.8172C189.759 35.512 189.655 35.2141 189.526 34.927L188.374 32.3368C188.019 32.3241 187.546 32.3177 186.956 32.3177H183.59C183.123 32.3177 182.703 32.3241 182.328 32.3368L181.233 34.8504C181.138 35.0852 181.036 35.3423 180.928 35.6217C180.822 35.8916 180.767 36.179 180.767 36.4691C180.765 36.5379 180.772 36.6065 180.786 36.6739C180.793 36.7121 180.805 36.7491 180.824 36.7834V36.8217H178.882V36.7836C179.048 36.5864 179.192 36.3709 179.31 36.1413C179.481 35.8334 179.669 35.4478 179.872 34.9845L185.328 22.8831H186.09L191.259 34.5175C191.38 34.7904 191.505 35.0555 191.635 35.3125C191.766 35.5696 191.888 35.7997 192.003 36.0028C192.117 36.2059 192.218 36.3773 192.307 36.5169C192.396 36.6566 192.456 36.7455 192.488 36.7836V36.8217H189.879ZM183.709 31.4994C184.077 31.4994 184.455 31.4978 184.842 31.4946L185.98 31.4851C186.351 31.4819 186.708 31.4787 187.051 31.4756C187.394 31.4724 187.705 31.4676 187.984 31.4612L185.308 25.4151L182.681 31.4994H183.709ZM193.744 36.7836C193.789 36.6208 193.824 36.4555 193.849 36.2886C193.881 36.0918 193.909 35.8474 193.935 35.5554C193.96 35.2633 193.979 34.9158 193.992 34.5128C194.005 34.1098 194.011 33.6384 194.011 33.0989V26.9004C194.011 26.3609 194.005 25.8896 193.992 25.4865C193.98 25.0834 193.96 24.7343 193.935 24.4391C193.909 24.1439 193.881 23.898 193.849 23.7012C193.824 23.5343 193.789 23.369 193.744 23.2062V23.1681H196.02V23.2062C195.975 23.3692 195.939 23.5345 195.911 23.7012C195.876 23.898 195.847 24.1439 195.825 24.4391C195.803 24.7343 195.784 25.0834 195.767 25.4865C195.752 25.8896 195.744 26.3609 195.744 26.9004V33.0989C195.744 33.6384 195.752 34.1098 195.767 34.5128C195.783 34.9159 195.803 35.2634 195.825 35.5554C195.847 35.8473 195.876 36.0917 195.911 36.2886C195.939 36.4553 195.975 36.6205 196.02 36.7836V36.8217H193.744V36.7836ZM200.838 35.9844C201.528 35.9872 202.218 35.9554 202.905 35.8892C203.533 35.8257 204.082 35.7527 204.552 35.6702C205.098 35.5813 205.596 35.4766 206.047 35.356L205.77 36.8979C205.694 36.8915 205.579 36.8852 205.427 36.8788C205.275 36.8725 205.105 36.8661 204.918 36.8598C204.731 36.8535 204.534 36.8487 204.328 36.8455C204.121 36.8422 203.926 36.8391 203.743 36.8359C203.559 36.8327 203.395 36.8296 203.252 36.8264C203.109 36.8233 203.006 36.8217 202.942 36.8217H198.829V36.7836C198.874 36.6205 198.91 36.4553 198.938 36.2886C198.973 36.0918 199.004 35.8474 199.029 35.5554C199.054 35.2633 199.073 34.9158 199.086 34.5128C199.099 34.1098 199.105 33.6384 199.105 33.0989V26.9004C199.105 26.3609 199.099 25.8896 199.086 25.4865C199.074 25.0834 199.054 24.7343 199.029 24.4391C199.004 24.1439 198.973 23.898 198.938 23.7012C198.91 23.5345 198.874 23.3692 198.829 23.2062V23.1681H201.114V23.2062C201.069 23.3692 201.032 23.5345 201.004 23.7012C200.969 23.898 200.941 24.1439 200.918 24.4391C200.896 24.7343 200.877 25.0834 200.861 25.4865C200.845 25.8896 200.837 26.3609 200.837 26.9004L200.838 35.9844ZM213.492 25.3398H213.283C213.219 25.1669 213.138 25.001 213.04 24.8447C212.921 24.6509 212.773 24.4759 212.602 24.3258C212.407 24.1552 212.185 24.0184 211.945 23.9211C211.656 23.8073 211.347 23.7522 211.036 23.7593C210.753 23.7542 210.472 23.8027 210.207 23.9021C209.979 23.9889 209.772 24.1255 209.603 24.3019C209.439 24.4768 209.313 24.6845 209.236 24.9114C209.15 25.1627 209.109 25.4268 209.112 25.6922C209.114 26.1563 209.248 26.6103 209.498 27.0014C209.776 27.4447 210.1 27.858 210.464 28.2345C210.851 28.6407 211.27 29.0469 211.721 29.4532C212.163 29.8512 212.583 30.274 212.978 30.7195C213.352 31.1392 213.676 31.6009 213.944 32.0954C214.2 32.5707 214.333 33.1028 214.33 33.6427C214.328 34.0659 214.255 34.4859 214.115 34.8853C213.973 35.2994 213.748 35.6802 213.454 36.004C213.131 36.3506 212.738 36.6245 212.302 36.8074C211.771 37.0255 211.2 37.131 210.626 37.1171C210.279 37.1185 209.933 37.085 209.593 37.0171C209.286 36.9559 208.984 36.8732 208.688 36.7695C208.434 36.6804 208.186 36.5738 207.946 36.4505C207.76 36.3562 207.581 36.2513 207.408 36.1364L207.627 34.0321H207.865C207.935 34.3319 208.051 34.6192 208.207 34.8842C208.364 35.1514 208.561 35.3924 208.792 35.5984C209.028 35.8069 209.297 35.9743 209.588 36.0933C209.899 36.2196 210.233 36.2828 210.569 36.279C210.866 36.2837 211.161 36.2337 211.441 36.1314C211.686 36.0402 211.911 35.901 212.102 35.722C212.287 35.547 212.431 35.3343 212.526 35.0984C212.626 34.8471 212.676 34.5786 212.674 34.3081C212.677 33.9272 212.603 33.5497 212.455 33.1989C212.305 32.8533 212.111 32.5285 211.879 32.2325C211.631 31.9176 211.361 31.6216 211.069 31.347C210.768 31.0614 210.458 30.7741 210.141 30.4853C209.824 30.1965 209.514 29.8998 209.212 29.5953C208.914 29.2947 208.643 28.9681 208.402 28.6194C208.165 28.2737 207.971 27.8994 207.826 27.5054C207.676 27.0854 207.602 26.6421 207.607 26.1962C207.6 25.7277 207.7 25.2638 207.898 24.8393C208.083 24.447 208.346 24.0957 208.669 23.8063C208.988 23.5214 209.358 23.2986 209.759 23.1493C210.161 22.9978 210.586 22.9203 211.016 22.9208C211.309 22.9187 211.603 22.9442 211.892 22.9969C212.135 23.0418 212.375 23.1022 212.611 23.1778C212.823 23.2476 213.009 23.3175 213.168 23.3873C213.326 23.4571 213.456 23.5142 213.558 23.5586L213.492 25.3398Z" fill="black"/>
<defs>
<linearGradient id="paint0_linear_874_54" x1="49.52" y1="18.8232" x2="52.817" y2="14.2289" gradientUnits="userSpaceOnUse">
<stop stop-color="#F4D35E"/>
<stop offset="1" stop-color="#EE964B"/>
</linearGradient>
<linearGradient id="paint1_linear_874_54" x1="82.5156" y1="18.8236" x2="79.2186" y2="14.2292" gradientUnits="userSpaceOnUse">
<stop stop-color="#F4D35E"/>
<stop offset="1" stop-color="#EE964B"/>
</linearGradient>
<linearGradient id="paint2_linear_874_54" x1="48.7049" y1="26.5736" x2="49.7488" y2="21.016" gradientUnits="userSpaceOnUse">
<stop stop-color="#F4D35E"/>
<stop offset="1" stop-color="#EE964B"/>
</linearGradient>
<linearGradient id="paint3_linear_874_54" x1="83.3312" y1="26.569" x2="82.2847" y2="21.0116" gradientUnits="userSpaceOnUse">
<stop stop-color="#F4D35E"/>
<stop offset="1" stop-color="#EE964B"/>
</linearGradient>
<linearGradient id="paint4_linear_874_54" x1="82.1732" y1="33.9093" x2="83.4749" y2="28.4062" gradientUnits="userSpaceOnUse">
<stop stop-color="#F4D35E"/>
<stop offset="1" stop-color="#EE964B"/>
</linearGradient>
<linearGradient id="paint5_linear_874_54" x1="49.8678" y1="33.903" x2="48.566" y2="28.4" gradientUnits="userSpaceOnUse">
<stop stop-color="#F4D35E"/>
<stop offset="1" stop-color="#EE964B"/>
</linearGradient>
<linearGradient id="paint6_linear_874_54" x1="54.5034" y1="40.313" x2="50.8435" y2="36.0052" gradientUnits="userSpaceOnUse">
<stop stop-color="#F4D35E"/>
<stop offset="1" stop-color="#EE964B"/>
</linearGradient>
<linearGradient id="paint7_linear_874_54" x1="77.5367" y1="40.3147" x2="81.1971" y2="36.0041" gradientUnits="userSpaceOnUse">
<stop stop-color="#F4D35E"/>
<stop offset="1" stop-color="#EE964B"/>
</linearGradient>
<linearGradient id="paint8_linear_874_54" x1="70.2285" y1="44.275" x2="75.5193" y2="42.2803" gradientUnits="userSpaceOnUse">
<stop stop-color="#F4D35E"/>
<stop offset="1" stop-color="#EE964B"/>
</linearGradient>
<linearGradient id="paint9_linear_874_54" x1="61.8092" y1="44.2763" x2="56.5185" y2="42.2816" gradientUnits="userSpaceOnUse">
<stop stop-color="#F4D35E"/>
<stop offset="1" stop-color="#EE964B"/>
</linearGradient>
</defs>
</svg>
