<svg width="250" height="60" viewBox="0 0 250 60" fill="none" xmlns="http://www.w3.org/2000/svg">
<rect width="250" height="60" fill="white"/>
<path d="M116.544 40.763L116.487 30.9296L111.719 38.935H109.388L104.652 31.1943V40.763H99.8018V22.2119H104.116L110.635 32.9278L116.991 22.2119H121.311L121.362 40.763H116.544Z" fill="#3DAEBB"/>
<path d="M139.426 34.8566H128.99C129.406 36.3127 130.665 37.17 132.511 37.17C133.119 37.1886 133.724 37.0868 134.293 36.8705C134.861 36.6541 135.382 36.3275 135.824 35.9093L138.469 38.6638C137.096 40.2019 135.081 40.9961 132.353 40.9961C127.239 40.9961 123.926 37.8444 123.926 33.5454C123.926 29.2465 127.295 26.1515 131.824 26.1515C136.057 26.1515 139.502 28.8557 139.502 33.6022C139.483 33.9804 139.483 34.4532 139.426 34.8566ZM128.908 32.2028H134.79C134.67 31.5095 134.309 30.881 133.771 30.428C133.233 29.975 132.552 29.7266 131.849 29.7266C131.146 29.7266 130.465 29.975 129.927 30.428C129.389 30.881 129.028 31.5095 128.908 32.2028Z" fill="#3DAEBB"/>
<path d="M157.119 21.0962V40.7629H152.294V39.3321C151.343 40.473 149.939 41.0025 148.08 41.0025C144.163 41.0025 141.007 38.1407 141.007 33.5518C141.007 28.9629 144.156 26.1578 148.08 26.1578C148.814 26.1104 149.549 26.2184 150.239 26.4747C150.928 26.7311 151.555 27.1299 152.08 27.6455V21.0962H157.119ZM152.168 33.5518C152.168 31.3834 150.871 30.1606 149.17 30.1606C147.469 30.1606 146.153 31.3834 146.153 33.5518C146.153 35.7202 147.45 36.9998 149.17 36.9998C150.89 36.9998 152.137 35.7517 152.137 33.5518H152.168Z" fill="#3DAEBB"/>
<path d="M159.758 22.1299C159.758 20.6171 160.98 19.4509 162.832 19.4509C164.683 19.4509 165.937 20.5414 165.937 22.0417C165.937 23.5419 164.721 24.8026 162.863 24.8026C161.005 24.8026 159.758 23.6427 159.758 22.1299ZM160.318 26.3974H165.357V40.7629H160.318V26.3974Z" fill="#3DAEBB"/>
<path d="M181.11 36.9998V40.7819H167.883V37.8003L174.534 30.1417H168.047V26.3974H180.845V29.3411L174.194 36.9998H181.11Z" fill="#3DAEBB"/>
<path d="M197.763 34.8566H187.352C187.774 36.3127 189.015 37.1574 190.873 37.1574C191.481 37.176 192.087 37.0742 192.655 36.8579C193.224 36.6416 193.744 36.3149 194.186 35.8967L196.831 38.6513C195.452 40.1893 193.443 40.9836 190.715 40.9836C185.601 40.9836 182.288 37.8318 182.288 33.5329C182.288 29.2339 185.651 26.139 190.186 26.139C194.419 26.139 197.864 28.8431 197.864 33.5896C197.845 33.9804 197.795 34.4532 197.763 34.8566ZM187.251 32.2029H193.134C193.014 31.5095 192.653 30.881 192.115 30.428C191.577 29.975 190.896 29.7266 190.193 29.7266C189.49 29.7266 188.809 29.975 188.271 30.428C187.733 30.881 187.372 31.5095 187.251 32.2029Z" fill="#3DAEBB"/>
<path d="M215.456 32.5496V40.7441H210.417V33.3879C210.417 31.3204 209.516 30.4442 208.061 30.4442C206.443 30.4442 205.201 31.4528 205.201 33.8355V40.7693H200.163V26.3974H204.987V27.9607C205.583 27.3652 206.295 26.898 207.078 26.588C207.862 26.2779 208.7 26.1316 209.541 26.1579C212.886 26.1579 215.456 28.0931 215.456 32.5496Z" fill="#3DAEBB"/>
<path d="M82.0375 10.5463C80.5841 9.50454 78.9398 8.75964 77.1985 8.35421C75.4573 7.94877 73.6533 7.89075 71.8897 8.18345C70.126 8.47616 68.4374 9.11385 66.9201 10.0601C65.4029 11.0063 64.0869 12.2425 63.0473 13.6981L60.8679 16.7426L58.6887 13.6981C56.5847 10.7599 53.4006 8.77853 49.8368 8.18984C46.2731 7.60114 42.6217 8.45333 39.6858 10.5589C36.75 12.6645 34.7701 15.8511 34.1819 19.4176C33.5936 22.984 34.4452 26.6383 36.5491 29.5764L49.2345 47.3143C50.5492 49.1535 52.3016 50.6356 54.3329 51.6261C56.3642 52.6168 58.6104 53.0846 60.8679 52.9874C63.1264 53.0845 65.3734 52.6166 67.4057 51.6261C69.4381 50.6356 71.1916 49.1537 72.5077 47.3143L85.1868 29.5764C86.2317 28.1211 86.9792 26.4736 87.3865 24.7285C87.7938 22.9834 87.8528 21.175 87.5603 19.407C87.2677 17.639 86.6292 15.9462 85.6815 14.4257C84.7338 12.9052 83.4954 11.5868 82.0375 10.5463Z" fill="#3DAEBB"/>
<path d="M59.9987 28.196L55.4008 34.6192C54.2164 36.2801 53.7398 38.3438 54.0759 40.3564C54.4119 42.369 55.5331 44.1655 57.1927 45.3508C58.0145 45.9377 58.9437 46.3569 59.9274 46.5844C60.911 46.8119 61.9298 46.8432 62.9255 46.6767C64.9365 46.3404 66.7317 45.2184 67.916 43.5574L72.4069 37.254L59.9987 28.196Z" fill="#FBFDFD"/>
<path d="M78.3722 15.6963C77.5529 15.1082 76.6258 14.6876 75.6439 14.4586C74.6619 14.2297 73.6445 14.1967 72.6498 14.3619C71.6552 14.527 70.7029 14.8869 69.8475 15.4209C68.992 15.9549 68.2502 16.6526 67.6646 17.4739L63.0918 23.8656L75.4748 32.9552L80.1484 26.4185C80.7354 25.5978 81.1551 24.6694 81.3835 23.6864C81.612 22.7033 81.6447 21.6848 81.4797 20.6891C81.3148 19.6935 80.9554 18.7401 80.4222 17.8834C79.889 17.0267 79.1924 16.2835 78.3722 15.6963Z" fill="#E16461"/>
</svg>
