<svg width="250" height="60" viewBox="0 0 250 60" fill="none" xmlns="http://www.w3.org/2000/svg">
<rect width="250" height="60" fill="white"/>
<path d="M24.17 32.89H24.32C25.46 28.09 27.8 19.54 28.34 19.06C28.64 18.76 32.9 18.73 33.5 18.88C33.71 19 36.65 38.47 36.65 39.58C36.29 40.15 31.67 40.54 31.61 40.3C31.46 39.55 30.44 31.09 30.02 27.22H29.9C29.03 30.7 27.05 37.99 26.33 40.06C25.85 40.24 22.19 40.24 22.01 40C21.65 39.19 19.37 30.25 18.65 27.16H18.53C18.05 30.55 17.09 38.44 16.67 40.18C15.71 40.27 11.69 39.82 11.66 39.49C11.78 37.93 14.81 20.32 15.2 19.09C15.38 18.58 19.52 18.67 20.18 18.82C20.72 19.66 23.21 28.57 24.17 32.89ZM52.8786 39.94C52.6086 40.33 48.7086 40.21 48.4086 39.94C48.4386 39.31 48.4086 38.44 48.4386 38.23C47.7786 39.19 46.2486 40.45 43.9986 40.45C40.3686 40.45 38.6286 38.23 38.6286 34.03C38.6286 31.87 38.9286 26.74 39.0186 25.33C39.0786 25.03 43.5786 25.09 43.6686 25.18C43.7286 25.51 43.4286 32.35 43.4286 33.52C43.4286 35.2 44.1486 36.22 45.7086 36.22C47.3586 36.22 48.2286 34.96 48.2586 33.64C48.2586 32.77 48.3786 25.39 48.4986 25.27C48.5886 25.15 52.9386 25.21 53.0586 25.39C53.0886 25.51 52.9986 33.55 52.8786 39.94ZM56.1538 25.39C56.4238 24.94 60.6238 25.21 60.8938 25.48C60.8638 26.11 60.8338 26.92 60.8038 27.1C61.4638 26.11 62.6038 25.06 65.0338 25.06C66.7138 25.06 68.0638 25.9 68.8738 27.22C69.8938 25.42 72.1738 25.06 73.4038 25.06C77.1838 25.06 78.8638 27.55 78.8638 31.39C78.8638 33.43 78.7438 38.62 78.6538 40.03C78.6238 40.3 74.0638 40.3 73.9738 40.21C73.8838 40.15 74.0338 33.28 74.0338 31.87C74.0338 30.4 73.6438 29.29 72.0538 29.29C70.4038 29.29 69.9238 30.91 69.9238 31.84C69.9238 34 69.8338 38.44 69.7437 39.94C69.7138 40.21 65.1838 40.03 65.1238 39.97C65.0038 39.91 65.1538 32.89 65.1538 31.87C65.1538 30.4 64.7338 29.29 63.1738 29.29C61.6138 29.29 60.9538 30.61 60.9538 31.57C60.9538 32.44 60.8938 40.03 60.8038 40.15C60.7138 40.27 56.3338 40.21 56.2438 40.03C56.1838 39.91 56.0638 31.75 56.1538 25.39ZM90.8471 40.3C88.4471 40.3 86.6171 38.77 86.3771 38.44C86.3771 38.62 86.4371 40 86.3771 40.21C85.9271 40.36 82.4471 40.42 82.3571 40.3C82.2371 39.94 81.0671 18.4 81.8171 17.62C82.5371 16.9 86.6771 17.47 86.8571 17.62C87.0071 17.77 87.0971 26.08 87.0671 26.74C87.3371 26.32 88.9271 25.03 91.2071 25.03C94.3571 25.06 97.2671 27.46 97.2671 32.26C97.2671 37.78 94.2071 40.3 90.8471 40.3ZM92.7071 32.59C92.7071 30.67 91.3871 29.35 89.6471 29.35C87.8171 29.35 86.7071 30.55 86.7071 32.56C86.7071 34.39 87.7871 35.8 89.6171 35.8C91.5071 35.8 92.7071 34.66 92.7071 32.59ZM100.05 17.56C100.47 17.17 104.4 17.23 104.49 17.44C104.7 17.8 104.28 37.93 104.13 40.24C104.13 40.24 100.08 40.27 99.8396 40.12C99.5996 39.94 99.5996 17.95 100.05 17.56ZM111.411 33.88C111.411 35.47 112.551 36.46 114.621 36.46C116.241 36.46 117.351 35.89 118.131 35.41C118.431 35.71 119.661 38.2 119.691 38.65C118.881 39.4 116.811 40.36 114.381 40.36C108.951 40.36 106.761 36.73 106.761 32.89C106.761 28.84 109.281 25.06 113.991 25.06C117.981 25.06 120.411 28.06 120.411 31.42C120.411 32.35 120.321 33.13 120.141 33.73C118.641 33.94 113.211 33.94 111.411 33.88ZM111.381 31.12L116.091 31.03C116.151 29.56 115.401 28.42 113.961 28.42C112.401 28.42 111.381 29.59 111.381 31.12ZM134.038 40C133.738 40.12 128.938 40.27 128.908 40.09C128.758 38.68 128.878 21.31 129.148 19.24C130.678 19.06 133.918 18.91 136.258 18.91C142.018 18.91 145.318 21.19 145.318 26.2C145.318 29.32 143.848 31.15 141.508 32.11C143.788 34.87 146.128 38.53 146.038 38.65C145.708 39.1 142.258 40.54 141.358 40.51C141.268 40.51 138.658 36.28 136.168 33.01C136.048 33.04 135.898 33.04 135.778 33.04C135.268 33.04 134.548 33.01 134.188 32.98C134.158 35.05 134.158 39.13 134.038 40ZM134.488 28.81C135.058 28.87 135.958 28.9 136.648 28.9C138.598 28.9 139.948 28.12 139.948 26.32C139.948 24.64 139.078 23.56 136.468 23.56C135.898 23.56 135.088 23.59 134.488 23.65C134.518 24.46 134.488 27.76 134.488 28.81ZM147.576 28.24C147.606 27.73 149.586 24.91 153.606 24.91C157.326 24.91 160.206 27.1 160.206 31.48C160.206 34.69 160.056 39.67 159.966 39.85C159.876 40.03 156.096 39.85 156.096 39.85L155.826 38.56C155.616 38.77 154.356 40.21 151.986 40.21C148.716 40.21 147.336 38.29 147.336 35.68C147.336 32.98 149.706 31.27 152.706 31.27C154.086 31.27 154.926 31.66 155.496 32.08C155.526 30.79 155.586 29.02 152.886 29.02C151.026 29.02 150.156 30.34 149.886 30.37C149.616 30.37 147.546 28.57 147.576 28.24ZM151.356 35.59C151.356 36.58 152.196 37.27 153.306 37.27C154.626 37.27 155.286 36.49 155.286 35.59C155.286 34.54 154.416 33.88 153.306 33.88C152.136 33.88 151.356 34.63 151.356 35.59ZM172.416 25.06C175.956 25.06 178.986 27.7 178.986 32.68C178.986 37.48 175.746 40.15 172.056 40.18C170.076 40.18 168.426 39.25 168.186 38.86C168.186 39.85 168.306 46.21 168.036 46.39C167.766 46.6 163.656 46.78 163.086 46.48C162.996 46.45 163.176 25.63 163.446 24.97C163.476 24.88 167.946 25.12 167.946 25.12C167.946 25.3 167.916 26.56 167.916 26.74C168.126 26.38 169.716 25.06 172.416 25.06ZM173.916 32.74C173.916 30.7 172.686 29.62 171.066 29.62C169.026 29.62 168.066 30.91 168.066 32.71C168.066 34.69 169.446 35.89 170.946 35.89C172.836 35.89 173.916 34.6 173.916 32.74ZM190.668 25.06C194.208 25.06 197.238 27.7 197.238 32.68C197.238 37.48 193.998 40.15 190.308 40.18C188.328 40.18 186.678 39.25 186.438 38.86C186.438 39.85 186.558 46.21 186.288 46.39C186.018 46.6 181.908 46.78 181.338 46.48C181.248 46.45 181.428 25.63 181.698 24.97C181.728 24.88 186.198 25.12 186.198 25.12C186.198 25.3 186.168 26.56 186.168 26.74C186.378 26.38 187.968 25.06 190.668 25.06ZM192.168 32.74C192.168 30.7 190.938 29.62 189.318 29.62C187.278 29.62 186.318 30.91 186.318 32.71C186.318 34.69 187.698 35.89 189.198 35.89C191.088 35.89 192.168 34.6 192.168 32.74ZM203.55 33.88C203.55 35.47 204.69 36.46 206.76 36.46C208.38 36.46 209.49 35.89 210.27 35.41C210.57 35.71 211.8 38.2 211.83 38.65C211.02 39.4 208.95 40.36 206.52 40.36C201.09 40.36 198.9 36.73 198.9 32.89C198.9 28.84 201.42 25.06 206.13 25.06C210.12 25.06 212.55 28.06 212.55 31.42C212.55 32.35 212.46 33.13 212.28 33.73C210.78 33.94 205.35 33.94 203.55 33.88ZM203.52 31.12L208.23 31.03C208.29 29.56 207.54 28.42 206.1 28.42C204.54 28.42 203.52 29.59 203.52 31.12ZM224.787 25.27C225.267 25.54 224.667 29.68 224.157 30.28C223.677 30.16 222.687 29.95 222.057 29.98C220.677 30.01 219.957 30.97 219.777 32.29C219.717 32.95 219.957 39.94 219.837 40.03C219.777 40.15 214.917 40.21 214.827 40.03C214.737 39.91 214.737 26.17 214.857 25.6C215.127 25.12 219.267 24.97 219.537 25.24C219.567 25.87 219.537 27.13 219.537 27.31C220.647 25.36 222.777 24.97 224.787 25.27ZM226.448 25.27C226.748 25.21 237.488 25.06 237.578 25.09C237.638 25.12 237.908 28.15 237.818 28.42C237.758 28.54 231.908 36.16 231.818 36.34C232.118 36.28 237.338 36.04 237.638 36.31C237.728 36.4 237.698 40 237.548 40.12C237.398 40.24 226.628 40.12 226.538 40.09C226.448 40.03 226.118 37.51 226.298 36.73C226.298 36.64 232.208 29.05 232.208 29.05C232.208 29.05 226.718 29.41 226.298 29.02C226.028 28.78 226.178 25.36 226.448 25.27Z" fill="#E29F37"/>
</svg>
