<svg width="250" height="60" viewBox="0 0 250 60" fill="none" xmlns="http://www.w3.org/2000/svg">
<rect width="250" height="60" fill="white"/>
<path d="M90.9266 49.7642C90.2462 49.4379 89.9649 48.6281 90.2987 47.9554L108.729 10.8007C109.062 10.128 109.884 9.84719 110.565 10.1735C111.245 10.4998 111.526 11.3096 111.192 11.9823L92.7624 49.137C92.4291 49.8097 91.607 50.0905 90.9266 49.7642Z" fill="#FFB900"/>
<path d="M81.8339 35.9008C82.1951 36.6356 83.2497 36.6376 83.6135 35.9041L95.7589 11.4171C96.0831 10.7639 95.6039 10 94.8697 10H70.6922C69.96 10 69.4808 10.7609 69.8016 11.4139L81.8339 35.9008Z" fill="#FFB900"/>
<path d="M62.405 24.0992C62.0439 23.3643 60.9893 23.3624 60.6255 24.0959L48.48 48.5829C48.156 49.2361 48.6352 50 49.369 50H73.5467C74.2789 50 74.7581 49.2391 74.4373 48.5861L62.405 24.0992Z" fill="black"/>
<path d="M33.7716 49.7745C33.0882 49.4468 32.806 48.6333 33.1411 47.9577L51.5752 10.7943C51.9104 10.1186 52.736 9.83651 53.4194 10.1642C54.1028 10.492 54.385 11.3054 54.0499 11.9811L35.6158 49.1445C35.2806 49.8201 34.455 50.1022 33.7716 49.7745Z" fill="black"/>
<path d="M139.588 20.4167L136.294 39.375H132.661L129.328 26.7448L127.14 39.375H123.416L126.684 20.4167H130.33L133.689 33.0599L135.877 20.4167H139.588Z" fill="black"/>
<path d="M146.451 39.6354C145.513 39.618 144.71 39.4357 144.042 39.0885C143.373 38.7413 142.84 38.2682 142.44 37.6692C142.041 37.0616 141.768 36.3759 141.62 35.612C141.472 34.8394 141.442 34.0147 141.529 33.138L141.659 31.9792C141.781 31.0764 141.993 30.204 142.297 29.362C142.601 28.52 143.009 27.7691 143.521 27.1094C144.042 26.441 144.68 25.9201 145.435 25.5469C146.19 25.1736 147.076 24.9957 148.091 25.013C149.063 25.0391 149.849 25.2561 150.448 25.6641C151.056 26.0634 151.511 26.5929 151.815 27.2526C152.128 27.9123 152.319 28.6458 152.388 29.4531C152.458 30.2517 152.44 31.059 152.336 31.875L152.102 33.5417H142.922L143.378 30.9766L148.938 30.9896L149.003 30.625C149.063 30.2604 149.085 29.8828 149.068 29.4922C149.051 29.0929 148.946 28.7587 148.755 28.4896C148.564 28.2118 148.234 28.0599 147.766 28.0338C147.253 28.0078 146.837 28.125 146.516 28.3854C146.203 28.6372 145.96 28.9713 145.787 29.388C145.613 29.8047 145.487 30.243 145.409 30.7031C145.34 31.1545 145.283 31.5799 145.24 31.9792L145.096 33.151C145.053 33.5417 145.036 33.9366 145.044 34.3359C145.053 34.7266 145.105 35.0912 145.201 35.4297C145.305 35.7682 145.487 36.046 145.748 36.263C146.017 36.48 146.398 36.5929 146.893 36.6016C147.501 36.6189 148.061 36.5061 148.573 36.263C149.094 36.02 149.58 35.7075 150.031 35.3255L151.242 37.5521C150.878 38.0382 150.435 38.4418 149.914 38.763C149.393 39.0755 148.829 39.3012 148.221 39.4401C147.623 39.579 147.032 39.6441 146.451 39.6354Z" fill="black"/>
<path d="M161.412 36.1328L162.454 29.5963C162.48 29.3446 162.484 29.0885 162.467 28.8281C162.449 28.5677 162.375 28.3463 162.245 28.1641C162.124 27.9731 161.902 27.8733 161.581 27.8646C161.234 27.8559 160.956 27.9297 160.748 28.0859C160.54 28.2422 160.379 28.4462 160.266 28.6979C160.153 28.9497 160.071 29.2144 160.019 29.4922L156.451 29.5183C156.494 28.8064 156.672 28.1728 156.985 27.6172C157.306 27.053 157.718 26.5755 158.222 26.1849C158.725 25.7943 159.29 25.4991 159.915 25.2995C160.548 25.0998 161.204 25.0043 161.88 25.013C162.818 25.0304 163.612 25.2344 164.263 25.625C164.915 26.0156 165.392 26.5538 165.696 27.2396C166 27.9253 166.104 28.737 166.008 29.6745L165.005 35.9635C164.927 36.4757 164.858 37.0095 164.797 37.5651C164.745 38.112 164.806 38.6415 164.98 39.1537L164.967 39.375L161.49 39.388C161.342 38.8585 161.273 38.3203 161.282 37.7734C161.299 37.2179 161.342 36.671 161.412 36.1328ZM162.779 30.7683L162.415 32.9558L161.255 32.9427C160.917 32.9514 160.605 33.0165 160.318 33.138C160.04 33.2509 159.789 33.4158 159.563 33.6328C159.346 33.8412 159.168 34.0842 159.029 34.362C158.899 34.6311 158.816 34.9349 158.782 35.2734C158.747 35.4991 158.742 35.7292 158.769 35.9635C158.803 36.1893 158.886 36.3802 159.016 36.5365C159.155 36.6927 159.363 36.7752 159.641 36.7838C159.945 36.7838 160.244 36.7231 160.54 36.6016C160.835 36.4713 161.082 36.2891 161.282 36.0547C161.481 35.8203 161.598 35.5469 161.633 35.2344L162.284 36.6927C162.137 37.0833 161.95 37.4609 161.725 37.8255C161.507 38.1814 161.247 38.5026 160.943 38.7891C160.648 39.0668 160.31 39.2838 159.927 39.4401C159.554 39.5963 159.129 39.6701 158.651 39.6615C157.896 39.6528 157.245 39.4575 156.698 39.0755C156.16 38.6849 155.757 38.1814 155.487 37.5651C155.218 36.9488 155.101 36.2717 155.136 35.5338C155.17 34.7005 155.362 33.9844 155.709 33.3854C156.056 32.7778 156.503 32.2787 157.05 31.888C157.605 31.4974 158.235 31.2109 158.938 31.0287C159.65 30.8463 160.392 30.7552 161.165 30.7552L162.779 30.7683Z" fill="black"/>
<path d="M174.067 28.6198L172.205 39.375H168.65L171.099 25.2865H174.458L174.067 28.6198ZM177.804 25.1692L177.322 28.8021C177.132 28.7587 176.936 28.7283 176.737 28.7109C176.545 28.6849 176.359 28.6719 176.177 28.6719C175.717 28.6632 175.322 28.737 174.992 28.8932C174.67 29.0495 174.402 29.2708 174.185 29.5573C173.967 29.8351 173.785 30.1519 173.637 30.5078C173.499 30.8637 173.39 31.2326 173.312 31.6146L172.687 31.3542C172.757 30.8073 172.865 30.1693 173.012 29.4401C173.169 28.7109 173.39 28.0078 173.677 27.3307C173.972 26.6537 174.362 26.0937 174.849 25.651C175.335 25.2083 175.947 24.987 176.685 24.987C176.884 24.9957 177.071 25.0174 177.245 25.0521C177.427 25.0868 177.613 25.1259 177.804 25.1692Z" fill="black"/>
<path d="M186.698 32.7083L182.713 32.6953L183.273 29.5312L186.88 29.5573C187.453 29.5486 187.944 29.4097 188.352 29.1406C188.759 28.8628 189.076 28.507 189.302 28.0729C189.537 27.6302 189.692 27.1397 189.771 26.6016C189.823 26.2022 189.827 25.7769 189.784 25.3255C189.74 24.8741 189.602 24.4835 189.367 24.1537C189.142 23.8238 188.777 23.6415 188.273 23.6067L185.513 23.5807L182.779 39.375H179.067L182.336 20.4167L188.442 20.4297C189.597 20.4644 190.569 20.7595 191.359 21.3151C192.158 21.862 192.739 22.5955 193.104 23.5156C193.477 24.4357 193.616 25.4557 193.521 26.5755C193.408 27.8342 193.043 28.9192 192.427 29.8307C191.819 30.7422 191.025 31.454 190.044 31.9662C189.063 32.4696 187.948 32.717 186.698 32.7083Z" fill="black"/>
<path d="M200.682 28.6198L198.82 39.375H195.266L197.713 25.2865H201.073L200.682 28.6198ZM204.419 25.1692L203.937 28.8021C203.746 28.7587 203.551 28.7283 203.351 28.7109C203.16 28.6849 202.974 28.6719 202.791 28.6719C202.331 28.6632 201.936 28.737 201.606 28.8932C201.285 29.0495 201.016 29.2708 200.799 29.5573C200.582 29.8351 200.4 30.1519 200.252 30.5078C200.114 30.8637 200.005 31.2326 199.927 31.6146L199.302 31.3542C199.371 30.8073 199.48 30.1693 199.627 29.4401C199.784 28.7109 200.005 28.0078 200.291 27.3307C200.586 26.6537 200.977 26.0937 201.463 25.651C201.949 25.2083 202.561 24.987 203.299 24.987C203.499 24.9957 203.686 25.0174 203.859 25.0521C204.041 25.0868 204.228 25.1259 204.419 25.1692Z" fill="black"/>
<path d="M205.786 32.8125L205.903 31.875C205.999 30.9896 206.203 30.1345 206.516 29.3099C206.836 28.4853 207.262 27.743 207.791 27.0833C208.33 26.4236 208.976 25.9115 209.731 25.5469C210.496 25.1736 211.372 25 212.362 25.026C213.334 25.0434 214.133 25.2518 214.758 25.651C215.391 26.0503 215.886 26.5799 216.242 27.2396C216.598 27.8906 216.828 28.6198 216.932 29.4271C217.045 30.2257 217.058 31.0373 216.971 31.862L216.867 32.7995C216.754 33.6936 216.541 34.553 216.229 35.3776C215.916 36.2023 215.491 36.9401 214.953 37.5912C214.423 38.2422 213.777 38.7543 213.013 39.1276C212.258 39.4922 211.385 39.6615 210.396 39.6354C209.432 39.618 208.633 39.4097 208 39.0104C207.375 38.6111 206.884 38.0859 206.528 37.4349C206.173 36.7838 205.938 36.059 205.825 35.2604C205.712 34.4531 205.699 33.6372 205.786 32.8125ZM209.484 31.862L209.38 32.8385C209.354 33.1163 209.328 33.4635 209.302 33.8802C209.276 34.2882 209.293 34.7005 209.354 35.1172C209.415 35.5338 209.549 35.8854 209.758 36.1719C209.966 36.4497 210.287 36.5972 210.721 36.6146C211.207 36.6493 211.611 36.5408 211.932 36.2891C212.262 36.0287 212.518 35.6945 212.7 35.2865C212.883 34.8785 213.021 34.4531 213.117 34.0104C213.212 33.559 213.282 33.151 213.325 32.7865L213.416 31.8359C213.434 31.5668 213.451 31.224 213.468 30.8073C213.495 30.382 213.477 29.9653 213.416 29.5573C213.356 29.1406 213.217 28.7891 213 28.5026C212.791 28.2162 212.475 28.0599 212.049 28.0338C211.572 28.0078 211.177 28.125 210.864 28.3854C210.561 28.6458 210.313 28.98 210.122 29.388C209.931 29.7873 209.788 30.2127 209.692 30.6641C209.597 31.1155 209.528 31.5148 209.484 31.862Z" fill="black"/>
</svg>
