<svg width="133" height="40" viewBox="0 0 133 40" fill="none" xmlns="http://www.w3.org/2000/svg">
<g clip-path="url(#clip0_302_217)">
<path d="M36.6293 31.1382C36.2759 31.6295 35.9138 32.1123 35.5431 32.5864C35.1725 33.0606 34.7759 33.5088 34.3535 33.9313C33.1466 35.1985 31.7587 36.2847 30.2328 37.1468C29.4914 37.6037 28.7156 38.0088 27.9138 38.3623C27.0949 38.7157 26.2414 39.0175 25.3794 39.2588C23.6294 39.7416 21.819 39.9916 20 40.0002C17.3362 40.0175 14.6897 39.4744 12.2414 38.414C7.44832 36.3709 3.62935 32.552 1.58625 27.7588C-0.52582 22.802 -0.52582 17.1985 1.58625 12.2416C2.62073 9.87954 4.06901 7.71575 5.86211 5.85368C7.72418 4.06057 9.87935 2.6123 12.25 1.57782C14.6983 0.517471 17.3362 -0.0256324 20.0087 -0.00839103C21.8276 -0.00839103 23.638 0.241609 25.388 0.732988C27.0862 1.19851 28.7242 1.89678 30.2414 2.79333C31.0087 3.24161 31.7414 3.75023 32.4311 4.30195C33.1035 4.83644 33.75 5.4054 34.3535 6.01747C35.1897 6.87954 35.9483 7.81919 36.6207 8.81919C36.8621 9.20713 36.9225 9.58644 36.7759 9.95713C36.638 10.3278 36.3535 10.5951 35.9311 10.7761L32.0259 12.3623C31.6207 12.5433 31.1638 12.5692 30.7328 12.4399C30.2845 12.3364 29.888 12.0864 29.5949 11.7244C29.4225 11.552 29.2414 11.3623 29.069 11.1726C28.8966 10.983 28.7156 10.7933 28.5431 10.6209C28.1725 10.2416 27.7759 9.89678 27.3535 9.56919C26.9397 9.25023 26.5087 8.9485 26.0604 8.67264C25.6035 8.39678 25.1294 8.14678 24.638 7.93126C24.1466 7.71575 23.6552 7.52609 23.1638 7.35368C22.138 7.03471 21.069 6.87954 20 6.87954C18.2931 6.87954 16.6035 7.23299 15.0431 7.93126C13.5431 8.62954 12.1983 9.62092 11.0862 10.8364C9.96556 12.0606 9.05177 13.4744 8.39659 15.0088C7.72418 16.5951 7.38797 18.302 7.39659 20.0261C7.37935 21.7502 7.72418 23.4571 8.39659 25.0433C9.05177 26.5778 9.96556 27.983 11.0862 29.2157C12.1811 30.4485 13.5259 31.4226 15.0431 32.0692C16.5518 32.8106 18.2069 33.1813 20 33.1813C21.0776 33.1813 22.138 33.0261 23.1638 32.7071C23.6552 32.5347 24.1466 32.3364 24.638 32.1295C25.1294 31.914 25.6035 31.6726 26.0604 31.3882C26.5087 31.1123 26.9483 30.802 27.3535 30.4657C27.7587 30.1295 28.1552 29.7675 28.5431 29.3795C28.7156 29.2071 28.8966 29.0175 29.069 28.8278C29.2414 28.6382 29.4225 28.4485 29.5949 28.2761C29.888 27.914 30.2845 27.6554 30.7328 27.5347C31.2069 27.3968 31.638 27.414 32.0259 27.5864L35.9311 29.1726C36.3535 29.3451 36.638 29.6295 36.7759 30.0175C36.9225 30.3623 36.8707 30.7502 36.6293 31.1382ZM11.1207 13.983C11.3104 13.7157 11.5087 13.4571 11.7069 13.1985C11.9052 12.9399 12.1207 12.6985 12.3449 12.4744C13.3535 11.4744 14.5259 10.6554 15.8276 10.0778C16.2759 9.88816 16.7328 9.72437 17.1983 9.59506C18.1466 9.32782 19.1294 9.1985 20.1121 9.1985C21.5518 9.18988 22.9828 9.48299 24.3104 10.052C26.9052 11.164 28.9656 13.2244 30.0776 15.8192C31.2156 18.5002 31.2156 21.5261 30.0776 24.2071C29.5173 25.483 28.7328 26.6554 27.7673 27.664C26.7587 28.6295 25.5949 29.414 24.3104 29.9744C22.9828 30.552 21.5604 30.8364 20.1121 30.8278C19.1294 30.8278 18.1466 30.6899 17.1983 30.4313C16.2759 30.1813 15.3966 29.802 14.569 29.3192C14.1552 29.0778 13.7587 28.802 13.388 28.5088C13.0259 28.2157 12.6725 27.914 12.3449 27.5778C11.888 27.1123 11.4828 26.6037 11.1207 26.0692C10.9914 25.8882 10.9569 25.664 11.0345 25.4571C11.1207 25.2502 11.2845 25.0864 11.4914 25.0175L13.6035 24.164C13.8276 24.0692 14.069 24.052 14.3018 24.1209C14.5431 24.1813 14.7587 24.3106 14.9138 24.5088C15.0087 24.6037 15.1035 24.7071 15.1983 24.8106C15.2931 24.914 15.388 25.0175 15.4828 25.1123C15.6811 25.3192 15.8966 25.5088 16.1207 25.6813C16.3449 25.8537 16.5776 26.0175 16.819 26.164C17.069 26.3192 17.3276 26.4485 17.5862 26.5606C17.8535 26.6726 18.1207 26.7761 18.388 26.8709C18.9397 27.0433 19.5173 27.1295 20.1035 27.1295C21.0259 27.1295 21.9397 26.9399 22.7845 26.5606C23.5949 26.1813 24.319 25.6468 24.9225 24.9916C25.5345 24.3278 26.0259 23.5692 26.3794 22.7416C26.7414 21.8795 26.9225 20.9571 26.9225 20.0261C26.9311 19.0951 26.7414 18.1726 26.3794 17.3192C26.0259 16.4916 25.5345 15.733 24.9225 15.0692C23.6725 13.7244 21.9311 12.9571 20.1035 12.9313C19.5259 12.9313 18.9483 13.0175 18.388 13.1899C18.1207 13.2847 17.8535 13.3882 17.5862 13.5002C17.319 13.6123 17.0604 13.7502 16.819 13.8968C16.5776 14.0433 16.3449 14.2157 16.1207 14.3968C15.9052 14.5778 15.6897 14.7761 15.4828 14.983C15.388 15.0778 15.2931 15.1813 15.1983 15.2847C15.1035 15.3882 15.0087 15.4916 14.9138 15.5864C14.7587 15.7761 14.5431 15.9226 14.3018 15.983C14.069 16.0606 13.8276 16.052 13.6035 15.9571L11.4914 15.1037C11.2759 15.0261 11.1121 14.8623 11.0345 14.6468C10.9569 14.3968 10.9914 14.164 11.1207 13.983ZM24.3276 22.7675C24.2414 22.8882 24.1466 23.0088 24.0604 23.1295C23.9656 23.2502 23.8707 23.3623 23.7673 23.4657C23.3018 23.9226 22.7673 24.302 22.1725 24.5692C21.9656 24.6554 21.7587 24.733 21.5431 24.7933C21.1121 24.914 20.6552 24.9744 20.2069 24.9744C19.5431 24.9744 18.888 24.8451 18.2845 24.5778C17.0949 24.0692 16.1466 23.1209 15.638 21.9313C15.1121 20.6985 15.1121 19.3106 15.638 18.0778C16.138 16.8795 17.0862 15.9313 18.2845 15.4313C18.8966 15.164 19.5518 15.0347 20.2069 15.0347C20.6552 15.0347 21.1121 15.0951 21.5431 15.2157C21.9656 15.3364 22.3707 15.5002 22.75 15.7244C22.9397 15.8364 23.1207 15.9571 23.2931 16.0951C23.4569 16.2244 23.6207 16.3709 23.7673 16.5175C23.9742 16.733 24.1638 16.9657 24.3276 17.2157C24.388 17.2933 24.4052 17.4054 24.3707 17.5002C24.3362 17.5951 24.2587 17.6726 24.1638 17.7071L23.1897 18.1037C23.0862 18.1468 22.9742 18.1554 22.8707 18.1209C22.7587 18.0951 22.6638 18.0347 22.5862 17.9399C22.5431 17.8968 22.5 17.8537 22.4569 17.802C22.4138 17.7502 22.3707 17.7071 22.3276 17.664C22.2328 17.5692 22.138 17.483 22.0345 17.4054C21.9311 17.3278 21.8276 17.2502 21.7156 17.1813C21.6035 17.1123 21.4828 17.052 21.3621 17.0002C21.2414 16.9485 21.1207 16.8968 20.9914 16.8537C20.7328 16.7761 20.4742 16.733 20.2069 16.733C19.7845 16.733 19.3621 16.8192 18.9742 16.9916C18.6035 17.164 18.2673 17.414 17.9914 17.7157C17.7156 18.0175 17.4828 18.3709 17.319 18.7502C17.1552 19.1468 17.069 19.5692 17.069 19.9916C17.069 20.4226 17.1466 20.8451 17.319 21.233C17.4828 21.6123 17.7069 21.9657 17.9914 22.2675C18.5604 22.8882 19.3621 23.2416 20.2069 23.2502C20.4742 23.2502 20.7414 23.2071 20.9914 23.1295C21.1121 23.0864 21.2328 23.0347 21.3621 22.983C21.4828 22.9313 21.6035 22.8709 21.7156 22.802C21.8276 22.733 21.9311 22.6554 22.0345 22.5692C22.138 22.483 22.2328 22.3968 22.3276 22.302C22.3707 22.2588 22.4138 22.2157 22.4569 22.164C22.5 22.1123 22.5431 22.0692 22.5862 22.0261C22.6552 21.9399 22.7587 21.8709 22.8707 21.8451C22.9742 21.8106 23.0862 21.8106 23.1897 21.8623L24.1552 22.2588C24.25 22.2933 24.3276 22.3709 24.3621 22.4657C24.3966 22.5778 24.388 22.6813 24.3276 22.7675ZM20.138 18.4054C19.2587 18.4054 18.5345 19.1209 18.5345 20.0088C18.5345 20.8882 19.25 21.6123 20.138 21.6123C21.0173 21.6123 21.7414 20.8968 21.7414 20.0088C21.7414 19.1209 21.0259 18.4054 20.138 18.4054Z" fill="#AE094E"/>
<path d="M58.293 24.0863C58.1637 24.2673 58.0344 24.4397 57.8965 24.6122C57.7585 24.7846 57.6206 24.9484 57.4654 25.1035C56.7844 25.7846 55.9913 26.3277 55.112 26.7242C54.8103 26.8535 54.4999 26.9656 54.1896 27.0518C53.5516 27.2328 52.8878 27.3191 52.2241 27.3191C51.2499 27.3277 50.2844 27.1294 49.3965 26.7415C47.6465 25.9915 46.2499 24.6035 45.5085 22.8535C44.7413 21.0432 44.7413 19.0001 45.5085 17.1897C45.8878 16.3277 46.4137 15.5346 47.0689 14.8622C47.7499 14.207 48.5344 13.6811 49.3965 13.3018C50.293 12.9139 51.2499 12.7156 52.2241 12.7242C52.8878 12.7242 53.5516 12.819 54.1896 12.9915C54.8103 13.1639 55.4051 13.4139 55.9654 13.7415C56.2413 13.9053 56.5085 14.0863 56.7672 14.2932C57.0172 14.4915 57.2499 14.6984 57.4741 14.9225C57.7758 15.2415 58.0603 15.5777 58.3016 15.9397C58.3878 16.0604 58.4137 16.2156 58.362 16.3535C58.3103 16.4915 58.1982 16.6035 58.0516 16.6553L56.6292 17.2328C56.4827 17.3018 56.3103 17.3104 56.1551 17.2587C55.9913 17.2242 55.8447 17.1294 55.7413 17.0001C55.6809 16.9397 55.612 16.8708 55.5516 16.8018C55.4913 16.7328 55.4223 16.6639 55.362 16.6035C55.2241 16.4656 55.0775 16.3363 54.9309 16.2156C54.7758 16.0949 54.6206 15.9915 54.4568 15.888C54.293 15.7846 54.1206 15.6984 53.9396 15.6208C53.7585 15.5432 53.5775 15.4742 53.3965 15.4053C53.0258 15.2932 52.6292 15.2328 52.2413 15.2328C51.6206 15.2328 50.9999 15.3622 50.4309 15.6208C49.8878 15.8794 49.3965 16.2328 48.9827 16.6811C48.5689 17.1294 48.2413 17.6466 47.9999 18.1984C47.7585 18.7759 47.6292 19.3966 47.6378 20.0259C47.6292 20.6553 47.7585 21.2759 47.9999 21.8535C48.2413 22.4139 48.5689 22.9225 48.9827 23.3708C49.8275 24.2759 50.9999 24.8018 52.2413 24.8191C52.6292 24.8191 53.0258 24.7587 53.3965 24.6466C53.5775 24.5863 53.7585 24.5087 53.9396 24.4311C54.1206 24.3535 54.293 24.2673 54.4568 24.1639C54.6206 24.0604 54.7758 23.9484 54.9309 23.8277C55.0775 23.707 55.2241 23.5777 55.362 23.4311C55.4223 23.3708 55.4913 23.3018 55.5516 23.2328C55.612 23.1639 55.6809 23.0949 55.7413 23.0346C55.8447 22.9053 55.9913 22.8104 56.1551 22.7673C56.3103 22.7156 56.4741 22.7242 56.6292 22.7846L58.0516 23.3622C58.1982 23.4139 58.3103 23.5259 58.362 23.6725C58.3965 23.8018 58.3792 23.9656 58.293 24.0863ZM67.2672 27.3191C66.293 27.3277 65.3275 27.1294 64.4396 26.7415C62.6896 25.9915 61.293 24.6035 60.5516 22.8535C59.7844 21.0346 59.7844 18.9828 60.5516 17.1639C61.293 15.4053 62.6896 14.0087 64.4396 13.2673C66.2585 12.5001 68.3016 12.5001 70.1206 13.2673C71.8706 14.0173 73.2672 15.4139 74.0085 17.1639C74.7758 18.9828 74.7758 21.0346 74.0085 22.8535C73.2585 24.6035 71.8706 26.0001 70.1206 26.7415C69.2154 27.1294 68.2413 27.3277 67.2672 27.3191ZM67.2758 15.207C66.6551 15.207 66.043 15.3363 65.4827 15.6035C64.9309 15.8622 64.4396 16.2156 64.0258 16.6553C63.6034 17.1035 63.2672 17.6208 63.0344 18.1897C62.5516 19.3535 62.5516 20.6725 63.0344 21.8363C63.2672 22.4053 63.6034 22.9225 64.0258 23.3708C64.4396 23.8104 64.9396 24.1725 65.4827 24.4311C66.6206 24.957 67.9396 24.957 69.0775 24.4311C69.6292 24.1725 70.1206 23.8104 70.5344 23.3708C70.9568 22.9225 71.2844 22.4053 71.5258 21.8363C72.0172 20.6725 72.0172 19.3535 71.5258 18.1897C71.293 17.6208 70.9568 17.1035 70.5344 16.6553C70.1206 16.2156 69.6206 15.8622 69.0775 15.6035C68.5085 15.3363 67.8965 15.1984 67.2758 15.207ZM77.5516 27.0518C77.3965 27.0604 77.2413 26.9915 77.1378 26.8794C77.0258 26.7673 76.9741 26.6122 76.9741 26.457V13.5518C76.9741 13.3966 77.0258 13.2415 77.1378 13.1294C77.2413 13.0173 77.3965 12.9484 77.5516 12.957H82.5172C84.5344 12.957 86.1896 13.5518 87.4827 14.7328C88.1637 15.3622 88.6982 16.138 89.043 17.0087C89.4051 17.9656 89.5861 18.9915 89.5775 20.0173C89.5775 20.5518 89.5344 21.0777 89.4396 21.6035C89.3534 22.0863 89.2154 22.5604 89.0344 23.0173C88.7068 23.8966 88.1723 24.6811 87.474 25.3104C86.8361 25.8966 86.0775 26.3363 85.2585 26.6208C84.3706 26.9225 83.4396 27.0691 82.4999 27.0604L77.5516 27.0518ZM80.2499 24.6639H82.543C83.0516 24.6639 83.5689 24.6035 84.0689 24.4915C84.5775 24.3708 85.0516 24.138 85.4568 23.8018C85.8706 23.4828 86.2154 23.0087 86.4999 22.3966C86.7672 21.8104 86.9051 21.0173 86.9051 20.0259C86.9051 19.0518 86.7672 18.2501 86.4999 17.638C86.2154 17.0173 85.8706 16.5518 85.4568 16.2328C85.043 15.9053 84.5689 15.6725 84.0516 15.5604C83.5603 15.4484 83.0516 15.388 82.5516 15.388H80.2585C80.1034 15.3794 79.9482 15.4484 79.8447 15.5604C79.7327 15.6725 79.6809 15.8277 79.6809 15.9828V24.0691C79.6809 24.2242 79.7327 24.3794 79.8447 24.4915C79.9396 24.6035 80.0861 24.6639 80.2499 24.6639ZM94.4051 27.0518H92.8792C92.724 27.0604 92.5689 26.9915 92.4654 26.8794C92.3534 26.7673 92.3016 26.6122 92.3016 26.457V13.569C92.3016 13.4139 92.3534 13.2587 92.4654 13.1466C92.5689 13.0346 92.724 12.9656 92.8792 12.9742H94.4051C94.7327 12.9742 94.9999 13.2328 94.9999 13.5604V13.569V26.457C94.9999 26.7846 94.7413 27.0518 94.4137 27.0518H94.4051ZM98.2327 24.7242L99.043 23.5259C99.1206 23.3966 99.2585 23.3018 99.4051 23.2759C99.5603 23.2501 99.7154 23.2846 99.8447 23.3708C100.388 23.7156 100.957 24.0259 101.543 24.2932C102.284 24.6553 103.095 24.8363 103.914 24.8363C104.302 24.8449 104.698 24.7846 105.069 24.6639C105.371 24.5777 105.664 24.4311 105.914 24.2415C106.129 24.0777 106.302 23.8794 106.431 23.6466C106.543 23.4484 106.603 23.2242 106.603 22.9915C106.603 22.7242 106.509 22.4656 106.336 22.2587C106.138 22.0604 105.905 21.8966 105.646 21.7759C105.5 21.707 105.345 21.6466 105.181 21.6035C105.017 21.5518 104.827 21.5001 104.621 21.4484C104.431 21.3966 104.233 21.3535 104.034 21.3104C103.836 21.2759 103.629 21.2328 103.405 21.1984C103.267 21.1725 103.112 21.1466 102.94 21.1122C102.776 21.0777 102.603 21.0432 102.422 21.0087C102.026 20.9484 101.638 20.8535 101.267 20.7242C100.862 20.6122 100.465 20.4484 100.095 20.2415C99.7068 20.0518 99.362 19.7932 99.0516 19.4915C98.7327 19.1897 98.4741 18.8191 98.3016 18.4139C98.112 17.9484 98.0258 17.4484 98.0344 16.9484C98.0344 16.138 98.1982 15.4484 98.5344 14.888C98.8534 14.3622 99.2844 13.9225 99.8016 13.5949C100.345 13.2846 100.922 13.0604 101.534 12.9397C102.146 12.8104 102.759 12.7501 103.379 12.7501C103.905 12.7415 104.44 12.7846 104.957 12.8622C105.181 12.8966 105.405 12.9484 105.621 13.0087C105.836 13.069 106.043 13.1294 106.25 13.1897C106.457 13.2673 106.655 13.3535 106.845 13.4484C107.034 13.5432 107.224 13.6466 107.405 13.7501C107.534 13.8277 107.655 13.9053 107.767 13.9828C107.879 14.0604 108.009 14.138 108.155 14.2156C108.284 14.3018 108.379 14.4397 108.405 14.6035C108.431 14.7587 108.388 14.9225 108.293 15.0432L107.483 16.1984C107.388 16.3363 107.25 16.4225 107.086 16.4484C106.931 16.4742 106.767 16.4397 106.638 16.3535C106.19 16.0604 105.715 15.8104 105.215 15.6208C104.595 15.3708 103.94 15.2501 103.267 15.2587C103.155 15.2587 103.026 15.2673 102.888 15.2759C102.75 15.2846 102.612 15.3104 102.474 15.3363C102.181 15.3966 101.896 15.5001 101.629 15.6294C101.509 15.6897 101.388 15.7587 101.276 15.8449C101.164 15.9225 101.069 16.0173 100.974 16.1122C100.81 16.3191 100.715 16.5777 100.724 16.8449C100.715 17.1122 100.827 17.3794 101.034 17.5604C101.267 17.7673 101.534 17.9311 101.827 18.0432C101.991 18.1035 102.164 18.1639 102.336 18.2156C102.509 18.2673 102.69 18.3191 102.888 18.3708C103.077 18.4225 103.267 18.4656 103.457 18.5087C103.646 18.5432 103.827 18.5949 104.009 18.6466C104.146 18.6725 104.302 18.707 104.448 18.7415C104.612 18.7846 104.784 18.8104 104.948 18.8363C105.129 18.8622 105.31 18.8966 105.509 18.9397C105.698 18.9828 105.896 19.0432 106.086 19.1035C106.19 19.1294 106.293 19.1639 106.405 19.1984C106.517 19.2328 106.621 19.2759 106.724 19.3104C106.879 19.3708 107.052 19.457 107.25 19.5604C107.431 19.6466 107.595 19.7501 107.759 19.8708C107.853 19.9311 107.948 20.0001 108.034 20.0691C108.121 20.138 108.198 20.2156 108.276 20.2932C108.595 20.6122 108.845 20.9915 109.009 21.4139C109.198 21.8622 109.293 22.4053 109.302 23.0346C109.31 23.6897 109.181 24.3449 108.914 24.9397C108.664 25.4656 108.284 25.9225 107.819 26.2673C107.31 26.6466 106.741 26.9225 106.121 27.0777C105.414 27.2587 104.681 27.3535 103.948 27.3449C103.293 27.3535 102.646 27.2932 102 27.1725C101.474 27.0863 100.965 26.9311 100.474 26.7328C100.241 26.6466 100.017 26.5432 99.8016 26.4311C99.5861 26.3191 99.3706 26.207 99.1637 26.0777C99.0344 26.0001 98.9051 25.9225 98.7758 25.8363C98.6465 25.7501 98.5085 25.6553 98.3706 25.5604C98.2327 25.4828 98.1465 25.3449 98.1206 25.1984C98.112 25.0087 98.1465 24.8535 98.2327 24.7242ZM119.905 15.3449H117.069C116.741 15.3449 116.474 15.6035 116.474 15.9311V15.9397V26.457C116.474 26.7846 116.215 27.0518 115.888 27.0518H115.879H114.379C114.052 27.0518 113.784 26.7932 113.784 26.4656V26.457V15.9397C113.784 15.6122 113.526 15.3449 113.198 15.3449H113.19H110.336C110.009 15.3449 109.741 15.0863 109.741 14.7587V14.7501V13.5518C109.741 13.2242 110 12.957 110.327 12.957H110.336H119.905C120.233 12.957 120.5 13.2156 120.5 13.5432V13.5518V14.7415C120.5 15.0691 120.241 15.3363 119.914 15.3363C119.914 15.3449 119.905 15.3449 119.905 15.3449ZM125.043 15.9397V18.2673C125.043 18.5949 125.302 18.8622 125.629 18.8622H125.638H131.259C131.586 18.8622 131.853 19.1208 131.853 19.4484V19.457V20.707C131.853 21.0346 131.595 21.3018 131.267 21.3018H131.259H125.638C125.31 21.3018 125.043 21.5604 125.043 21.888V21.8966V24.0173C125.043 24.3449 125.302 24.6122 125.629 24.6122H125.638H132.129C132.457 24.6122 132.724 24.8708 132.724 25.1984V25.207V26.4397C132.724 26.7673 132.465 27.0346 132.138 27.0346H132.129H122.94C122.612 27.0346 122.345 26.7759 122.345 26.4484V26.4397V13.5518C122.345 13.2242 122.603 12.957 122.931 12.957H122.94H132.129C132.457 12.957 132.724 13.2156 132.724 13.5432V13.5518V14.7415C132.724 15.0691 132.465 15.3363 132.138 15.3363H132.129H125.638C125.31 15.3363 125.043 15.5949 125.043 15.9225C125.043 15.9311 125.043 15.9311 125.043 15.9397Z" fill="white"/>
</g>
<defs>
<clipPath id="clip0_302_217">
<rect width="132.733" height="40" fill="white"/>
</clipPath>
</defs>
</svg>
